G04 #@! TF.GenerationSoftware,KiCad,Pcbnew,5.1.8-5.1.8*
G04 #@! TF.CreationDate,2020-12-23T15:54:33+01:00*
G04 #@! TF.ProjectId,distribution-amp,64697374-7269-4627-9574-696f6e2d616d,rev?*
G04 #@! TF.SameCoordinates,PX67aef80PY8a2ffa0*
G04 #@! TF.FileFunction,Copper,L2,Inr*
G04 #@! TF.FilePolarity,Positive*
%FSLAX46Y46*%
G04 Gerber Fmt 4.6, Leading zero omitted, Abs format (unit mm)*
G04 Created by KiCad (PCBNEW 5.1.8-5.1.8) date 2020-12-23 15:54:33*
%MOMM*%
%LPD*%
G01*
G04 APERTURE LIST*
G04 #@! TA.AperFunction,ComponentPad*
%ADD10O,1.700000X1.700000*%
G04 #@! TD*
G04 #@! TA.AperFunction,ComponentPad*
%ADD11R,1.700000X1.700000*%
G04 #@! TD*
G04 #@! TA.AperFunction,ComponentPad*
%ADD12C,0.800000*%
G04 #@! TD*
G04 #@! TA.AperFunction,ComponentPad*
%ADD13C,6.400000*%
G04 #@! TD*
G04 #@! TA.AperFunction,ComponentPad*
%ADD14O,2.250000X4.500000*%
G04 #@! TD*
G04 #@! TA.AperFunction,ComponentPad*
%ADD15O,2.500000X5.000000*%
G04 #@! TD*
G04 #@! TA.AperFunction,ComponentPad*
%ADD16C,2.250000*%
G04 #@! TD*
G04 #@! TA.AperFunction,ViaPad*
%ADD17C,0.800000*%
G04 #@! TD*
G04 #@! TA.AperFunction,Conductor*
%ADD18C,0.200000*%
G04 #@! TD*
G04 #@! TA.AperFunction,Conductor*
%ADD19C,0.100000*%
G04 #@! TD*
G04 APERTURE END LIST*
D10*
G04 #@! TO.N,GND*
G04 #@! TO.C,TP1*
X20500000Y14460000D03*
D11*
G04 #@! TO.N,Net-(D1-Pad2)*
X20500000Y17000000D03*
G04 #@! TD*
D12*
G04 #@! TO.N,GND*
G04 #@! TO.C,H4*
X7697056Y7697056D03*
X6000000Y8400000D03*
X4302944Y7697056D03*
X3600000Y6000000D03*
X4302944Y4302944D03*
X6000000Y3600000D03*
X7697056Y4302944D03*
X8400000Y6000000D03*
D13*
X6000000Y6000000D03*
G04 #@! TD*
D12*
G04 #@! TO.N,GND*
G04 #@! TO.C,H3*
X59197056Y7697056D03*
X57500000Y8400000D03*
X55802944Y7697056D03*
X55100000Y6000000D03*
X55802944Y4302944D03*
X57500000Y3600000D03*
X59197056Y4302944D03*
X59900000Y6000000D03*
D13*
X57500000Y6000000D03*
G04 #@! TD*
D12*
G04 #@! TO.N,GND*
G04 #@! TO.C,H2*
X59197056Y95697056D03*
X57500000Y96400000D03*
X55802944Y95697056D03*
X55100000Y94000000D03*
X55802944Y92302944D03*
X57500000Y91600000D03*
X59197056Y92302944D03*
X59900000Y94000000D03*
D13*
X57500000Y94000000D03*
G04 #@! TD*
D12*
G04 #@! TO.N,GND*
G04 #@! TO.C,H1*
X7697056Y95697056D03*
X6000000Y96400000D03*
X4302944Y95697056D03*
X3600000Y94000000D03*
X4302944Y92302944D03*
X6000000Y91600000D03*
X7697056Y92302944D03*
X8400000Y94000000D03*
D13*
X6000000Y94000000D03*
G04 #@! TD*
D14*
G04 #@! TO.N,GND*
G04 #@! TO.C,J6*
X8000000Y15400000D03*
D15*
G04 #@! TO.N,Net-(D1-Pad2)*
X14000000Y15400000D03*
G04 #@! TD*
D16*
G04 #@! TO.N,Net-(C16-Pad1)*
G04 #@! TO.C,J5*
X58480000Y50000000D03*
G04 #@! TO.N,GND*
X55940000Y47460000D03*
X61020000Y47460000D03*
X61020000Y52540000D03*
X55940000Y52540000D03*
G04 #@! TD*
G04 #@! TO.N,Net-(C11-Pad2)*
G04 #@! TO.C,J4*
X58480000Y80000000D03*
G04 #@! TO.N,GND*
X55940000Y77460000D03*
X61020000Y77460000D03*
X61020000Y82540000D03*
X55940000Y82540000D03*
G04 #@! TD*
G04 #@! TO.N,Net-(C10-Pad1)*
G04 #@! TO.C,J3*
X58480000Y35000000D03*
G04 #@! TO.N,GND*
X55940000Y32460000D03*
X61020000Y32460000D03*
X61020000Y37540000D03*
X55940000Y37540000D03*
G04 #@! TD*
G04 #@! TO.N,Net-(C7-Pad1)*
G04 #@! TO.C,J2*
X58480000Y20000000D03*
G04 #@! TO.N,GND*
X55940000Y17460000D03*
X61020000Y17460000D03*
X61020000Y22540000D03*
X55940000Y22540000D03*
G04 #@! TD*
G04 #@! TO.N,Net-(C6-Pad1)*
G04 #@! TO.C,J1*
X58480000Y65000000D03*
G04 #@! TO.N,GND*
X55940000Y62460000D03*
X61020000Y62460000D03*
X61020000Y67540000D03*
X55940000Y67540000D03*
G04 #@! TD*
D17*
G04 #@! TO.N,GND*
X4572000Y33147000D03*
X48305934Y21600000D03*
X46169369Y21600000D03*
X44032804Y21600000D03*
X41896239Y21600000D03*
X39759674Y21600000D03*
X37623188Y21606395D03*
X35556736Y22095616D03*
X33815281Y23311461D03*
X32304501Y24822241D03*
X30905776Y26429165D03*
X30140476Y28409891D03*
X30048000Y30540870D03*
X30048000Y32677435D03*
X50442500Y21600000D03*
X30048000Y34814000D03*
X26848000Y32758769D03*
X26848000Y30703537D03*
X26882716Y28649316D03*
X27296926Y26641243D03*
X28161214Y24781967D03*
X29430175Y23171137D03*
X30883416Y21717842D03*
X32378377Y20309736D03*
X34122289Y19231172D03*
X36068517Y18585218D03*
X38111109Y18400000D03*
X40166341Y18400000D03*
X42221572Y18400000D03*
X44276804Y18400000D03*
X46332036Y18400000D03*
X48387268Y18400000D03*
X26848000Y34814000D03*
X50442500Y18400000D03*
X48371580Y36628363D03*
X46538199Y37514792D03*
X45054249Y38960234D03*
X43280592Y40013862D03*
X50442500Y36600000D03*
X41212917Y40455404D03*
X38084000Y40462000D03*
X40340944Y37262000D03*
X42523799Y36837224D03*
X44194445Y35330813D03*
X46021817Y34025692D03*
X48186407Y33428406D03*
X38084000Y37262000D03*
X50442500Y33400000D03*
X40317196Y44882000D03*
X42515190Y45209544D03*
X44471664Y46262157D03*
X46108553Y47777974D03*
X48209303Y48400000D03*
X38084000Y44882000D03*
X50442500Y48400000D03*
X45646028Y51147475D03*
X43825898Y50048335D03*
X42254820Y48605892D03*
X40220364Y48082000D03*
X50442500Y51600000D03*
X47725225Y51593408D03*
X38084000Y48082000D03*
X30048000Y52656388D03*
X30048000Y54782775D03*
X30135255Y56904027D03*
X30883995Y58880441D03*
X32268517Y60485777D03*
X33780457Y61980625D03*
X35597112Y63061178D03*
X37684175Y63400000D03*
X39810563Y63400000D03*
X41936950Y63400000D03*
X44063337Y63400000D03*
X46189725Y63400000D03*
X48316112Y63400000D03*
X30048000Y50530000D03*
X50442500Y63400000D03*
X48352834Y66600000D03*
X46263168Y66600000D03*
X44173502Y66600000D03*
X42083837Y66600000D03*
X39994171Y66600000D03*
X37904505Y66600000D03*
X35825294Y66435836D03*
X33840939Y65796602D03*
X32061255Y64711243D03*
X30539176Y63281920D03*
X29074127Y61792265D03*
X27051669Y57805661D03*
X26848000Y55390232D03*
X26848000Y52960116D03*
X50442500Y66600000D03*
X27883823Y60080646D03*
X25222000Y52143318D03*
X25222000Y54227136D03*
X25222000Y56310954D03*
X25222000Y58394772D03*
X25222000Y60478589D03*
X25222000Y62562407D03*
X25222000Y64646225D03*
X25222000Y66730043D03*
X25222000Y68813860D03*
X25273129Y70895396D03*
X25918361Y72864057D03*
X27215801Y74483061D03*
X28870095Y75732357D03*
X30859736Y76310239D03*
X32942728Y76337500D03*
X35026546Y76337500D03*
X37110364Y76337500D03*
X39194182Y76337500D03*
X39249837Y79537500D03*
X37221675Y79537500D03*
X35193513Y79537500D03*
X33165351Y79537500D03*
X31137262Y79531349D03*
X29135097Y79238734D03*
X27251155Y78499747D03*
X25586648Y77348822D03*
X24157647Y75911375D03*
X23023065Y74235918D03*
X22299111Y72346155D03*
X22026159Y70341073D03*
X22022000Y68312960D03*
X22022000Y66284798D03*
X22022000Y64256635D03*
X22022000Y62228473D03*
X22022000Y60200311D03*
X22022000Y58172149D03*
X22022000Y56143987D03*
X22022000Y54115825D03*
X22022000Y52087663D03*
X43053000Y76708000D03*
X44323000Y76708000D03*
X44958000Y78486000D03*
X44958000Y77470000D03*
X44704000Y75819000D03*
X44704000Y74803000D03*
X45593000Y76327000D03*
X46736000Y76327000D03*
X43053000Y73787000D03*
X44323000Y73914000D03*
X32004000Y42545000D03*
X35179000Y42672000D03*
X26924000Y45085000D03*
X26924000Y46736000D03*
X27051000Y48641000D03*
X30099000Y45212000D03*
X32004000Y45212000D03*
X35052000Y44958000D03*
X35179000Y40386000D03*
X32004000Y40132000D03*
X30099000Y40005000D03*
X27051000Y40132000D03*
X26924000Y38989000D03*
X7112000Y33147000D03*
X9652000Y33147000D03*
X4572000Y31647000D03*
X7112000Y31647000D03*
X9652000Y31647000D03*
X4572000Y30147000D03*
X7112000Y30147000D03*
X9652000Y30147000D03*
X4572000Y28647000D03*
X7112000Y28647000D03*
X9652000Y28647000D03*
X19685000Y33147000D03*
X19685000Y31750000D03*
X19685000Y29972000D03*
X19685000Y28448000D03*
X6985000Y38481000D03*
X6985000Y37211000D03*
X9144000Y39243000D03*
X9144000Y36449000D03*
X7112000Y24511000D03*
X7112000Y23114000D03*
X9144000Y25146000D03*
X9144000Y22479000D03*
X1774999Y98225001D03*
X1774999Y91025001D03*
X1774999Y83825001D03*
X1774999Y76625001D03*
X1774999Y69425001D03*
X1774999Y62225001D03*
X1774999Y55025001D03*
X1774999Y47825001D03*
X1774999Y40625001D03*
X1774999Y33425001D03*
X1774999Y26225001D03*
X1774999Y19025001D03*
X1774999Y4625001D03*
X5374999Y87425001D03*
X5374999Y80225001D03*
X5374999Y73025001D03*
X5374999Y65825001D03*
X5374999Y58625001D03*
X5374999Y51425001D03*
X5374999Y44225001D03*
X5374999Y15425001D03*
X8974999Y98225001D03*
X8974999Y91025001D03*
X8974999Y83825001D03*
X8974999Y76625001D03*
X8974999Y69425001D03*
X8974999Y62225001D03*
X8974999Y55025001D03*
X8974999Y47825001D03*
X8974999Y19025001D03*
X12574999Y94625001D03*
X12574999Y87425001D03*
X12574999Y80225001D03*
X12574999Y73025001D03*
X12574999Y65825001D03*
X12574999Y58625001D03*
X12574999Y51425001D03*
X12574999Y40625001D03*
X11800000Y15425001D03*
X14374999Y46025001D03*
X14374999Y20825001D03*
X14374999Y10025001D03*
X14374999Y2825001D03*
X16174999Y98225001D03*
X16174999Y91025001D03*
X16174999Y83825001D03*
X16174999Y76625001D03*
X16174999Y69425001D03*
X16174999Y62225001D03*
X16174999Y55025001D03*
X17974999Y38825001D03*
X17974999Y17225001D03*
X17974999Y6425001D03*
X19774999Y94625001D03*
X19774999Y87425001D03*
X19774999Y80225001D03*
X19774999Y73025001D03*
X19774999Y65825001D03*
X19774999Y58625001D03*
X19774999Y11825001D03*
X21574999Y26225001D03*
X21574999Y2825001D03*
X23374999Y98225001D03*
X23374999Y91025001D03*
X23374999Y83825001D03*
X23374999Y37025001D03*
X23374999Y20825001D03*
X23374999Y8225001D03*
X25174999Y15425001D03*
X26974999Y94625001D03*
X26974999Y87425001D03*
X26974999Y4625001D03*
X28774999Y82025001D03*
X28774999Y71225001D03*
X28774999Y19025001D03*
X28774999Y11825001D03*
X30574999Y98225001D03*
X30574999Y91025001D03*
X30574999Y37025001D03*
X32374999Y85625001D03*
X32374999Y55025001D03*
X32374999Y31625001D03*
X32374999Y15425001D03*
X32374999Y8225001D03*
X34174999Y94625001D03*
X34174999Y73025001D03*
X34174999Y49625001D03*
X34174999Y2825001D03*
X35974999Y89225001D03*
X35974999Y82025001D03*
X35974999Y58625001D03*
X35974999Y28025001D03*
X35974999Y11825001D03*
X37774999Y98225001D03*
X37774999Y69425001D03*
X37774999Y53225001D03*
X37774999Y33425001D03*
X37774999Y6425001D03*
X39574999Y92825001D03*
X39574999Y85625001D03*
X39574999Y24425001D03*
X39574999Y15425001D03*
X41374999Y60425001D03*
X41374999Y29825001D03*
X41374999Y10025001D03*
X41374999Y2825001D03*
X43174999Y96425001D03*
X43174999Y89225001D03*
X43174999Y82025001D03*
X43174999Y71225001D03*
X43174999Y55025001D03*
X44974999Y42425001D03*
X44974999Y26225001D03*
X44974999Y13625001D03*
X44974999Y6425001D03*
X46774999Y92825001D03*
X46774999Y85625001D03*
X46774999Y58625001D03*
X48574999Y98225001D03*
X48574999Y73025001D03*
X48574999Y46025001D03*
X48574999Y29825001D03*
X48574999Y10025001D03*
X48574999Y2825001D03*
X50374999Y89225001D03*
X50374999Y55025001D03*
X50374999Y40625001D03*
X50374999Y24425001D03*
X50374999Y15425001D03*
X52174999Y94625001D03*
X52174999Y83825001D03*
X52174999Y76625001D03*
X52174999Y69425001D03*
X52174999Y60425001D03*
X52174999Y6425001D03*
X53974999Y44225001D03*
X53974999Y28025001D03*
X53974999Y11825001D03*
X55774999Y98225001D03*
X55774999Y73025001D03*
X55774999Y56825001D03*
X57574999Y85625001D03*
X57574999Y40625001D03*
X59374999Y26225001D03*
X59374999Y13625001D03*
X61174999Y89225001D03*
X61174999Y74825001D03*
X61174999Y58625001D03*
X61174999Y44225001D03*
X61174999Y4625001D03*
X10600000Y50400000D03*
X12200000Y50400000D03*
X10000000Y48200000D03*
X12800000Y48200000D03*
X16383000Y47244000D03*
X16383000Y45085000D03*
G04 #@! TO.N,VCC*
X16000000Y35500000D03*
X15375000Y34875000D03*
X14750000Y34250000D03*
X22300000Y41900000D03*
X23231500Y41931500D03*
X24131500Y41931500D03*
X17700000Y50400000D03*
X17669000Y49569000D03*
G04 #@! TD*
D18*
G04 #@! TO.N,GND*
X63155000Y325000D02*
X325000Y325000D01*
X325000Y3547167D01*
X3585351Y3547167D01*
X3954702Y3138954D01*
X4552164Y2794911D01*
X5205266Y2574037D01*
X5888909Y2484820D01*
X6576821Y2530691D01*
X7242566Y2709884D01*
X7860561Y3015516D01*
X8045298Y3138954D01*
X8414649Y3547167D01*
X55085351Y3547167D01*
X55454702Y3138954D01*
X56052164Y2794911D01*
X56705266Y2574037D01*
X57388909Y2484820D01*
X58076821Y2530691D01*
X58742566Y2709884D01*
X59360561Y3015516D01*
X59545298Y3138954D01*
X59914649Y3547167D01*
X59621891Y3839925D01*
X59621891Y3839926D01*
X59197056Y4264760D01*
X59021045Y4440771D01*
X58734038Y4727779D01*
X58734037Y4727779D01*
X57500000Y5961816D01*
X56265963Y4727779D01*
X56265962Y4727779D01*
X55978955Y4440771D01*
X55802944Y4264760D01*
X55378109Y3839926D01*
X55378109Y3839925D01*
X55085351Y3547167D01*
X8414649Y3547167D01*
X8121891Y3839925D01*
X8121891Y3839926D01*
X7697056Y4264760D01*
X7521045Y4440771D01*
X7234038Y4727779D01*
X7234037Y4727779D01*
X6000000Y5961816D01*
X4765963Y4727779D01*
X4765962Y4727779D01*
X4478955Y4440771D01*
X4302944Y4264760D01*
X3878109Y3839926D01*
X3878109Y3839925D01*
X3585351Y3547167D01*
X325000Y3547167D01*
X325000Y6111091D01*
X2484820Y6111091D01*
X2530691Y5423179D01*
X2709884Y4757434D01*
X3015516Y4139439D01*
X3138954Y3954702D01*
X3547167Y3585351D01*
X3839925Y3878109D01*
X3839926Y3878109D01*
X4264760Y4302944D01*
X4302944Y4341128D01*
X4727779Y4765962D01*
X4727779Y4765963D01*
X5961816Y6000000D01*
X6038184Y6000000D01*
X7272221Y4765963D01*
X7272221Y4765962D01*
X7697056Y4341128D01*
X7735240Y4302944D01*
X8160074Y3878109D01*
X8160075Y3878109D01*
X8452833Y3585351D01*
X8861046Y3954702D01*
X9205089Y4552164D01*
X9425963Y5205266D01*
X9515180Y5888909D01*
X9500365Y6111091D01*
X53984820Y6111091D01*
X54030691Y5423179D01*
X54209884Y4757434D01*
X54515516Y4139439D01*
X54638954Y3954702D01*
X55047167Y3585351D01*
X55339925Y3878109D01*
X55339926Y3878109D01*
X55764760Y4302944D01*
X55802944Y4341128D01*
X56227779Y4765962D01*
X56227779Y4765963D01*
X57461816Y6000000D01*
X57538184Y6000000D01*
X58772221Y4765963D01*
X58772221Y4765962D01*
X59197056Y4341128D01*
X59235240Y4302944D01*
X59660074Y3878109D01*
X59660075Y3878109D01*
X59952833Y3585351D01*
X60361046Y3954702D01*
X60705089Y4552164D01*
X60925963Y5205266D01*
X61015180Y5888909D01*
X60969309Y6576821D01*
X60790116Y7242566D01*
X60484484Y7860561D01*
X60361046Y8045298D01*
X59952833Y8414649D01*
X59660075Y8121891D01*
X59660074Y8121891D01*
X59398745Y7860561D01*
X59197056Y7658872D01*
X58772221Y7234038D01*
X58772221Y7234037D01*
X57538184Y6000000D01*
X57461816Y6000000D01*
X56227779Y7234037D01*
X56227779Y7234038D01*
X55802944Y7658872D01*
X55601255Y7860561D01*
X55339926Y8121891D01*
X55339925Y8121891D01*
X55047167Y8414649D01*
X54638954Y8045298D01*
X54294911Y7447836D01*
X54074037Y6794734D01*
X53984820Y6111091D01*
X9500365Y6111091D01*
X9469309Y6576821D01*
X9290116Y7242566D01*
X8984484Y7860561D01*
X8861046Y8045298D01*
X8452833Y8414649D01*
X8160075Y8121891D01*
X8160074Y8121891D01*
X7898745Y7860561D01*
X7697056Y7658872D01*
X7272221Y7234038D01*
X7272221Y7234037D01*
X6038184Y6000000D01*
X5961816Y6000000D01*
X4727779Y7234037D01*
X4727779Y7234038D01*
X4302944Y7658872D01*
X4101255Y7860561D01*
X3839926Y8121891D01*
X3839925Y8121891D01*
X3547167Y8414649D01*
X3138954Y8045298D01*
X2794911Y7447836D01*
X2574037Y6794734D01*
X2484820Y6111091D01*
X325000Y6111091D01*
X325000Y8452833D01*
X3585351Y8452833D01*
X3878109Y8160075D01*
X3878109Y8160074D01*
X4302944Y7735240D01*
X4341128Y7697056D01*
X4765962Y7272221D01*
X4765963Y7272221D01*
X6000000Y6038184D01*
X7234037Y7272221D01*
X7234038Y7272221D01*
X7658872Y7697056D01*
X7697056Y7735240D01*
X8121891Y8160074D01*
X8121891Y8160075D01*
X8414649Y8452833D01*
X55085351Y8452833D01*
X55378109Y8160075D01*
X55378109Y8160074D01*
X55802944Y7735240D01*
X55841128Y7697056D01*
X56265962Y7272221D01*
X56265963Y7272221D01*
X57500000Y6038184D01*
X58734037Y7272221D01*
X58734038Y7272221D01*
X59158872Y7697056D01*
X59197056Y7735240D01*
X59621891Y8160074D01*
X59621891Y8160075D01*
X59914649Y8452833D01*
X59545298Y8861046D01*
X58947836Y9205089D01*
X58294734Y9425963D01*
X57611091Y9515180D01*
X56923179Y9469309D01*
X56257434Y9290116D01*
X55639439Y8984484D01*
X55454702Y8861046D01*
X55085351Y8452833D01*
X8414649Y8452833D01*
X8045298Y8861046D01*
X7447836Y9205089D01*
X6794734Y9425963D01*
X6111091Y9515180D01*
X5423179Y9469309D01*
X4757434Y9290116D01*
X4139439Y8984484D01*
X3954702Y8861046D01*
X3585351Y8452833D01*
X325000Y8452833D01*
X325000Y15373000D01*
X6575000Y15373000D01*
X6575000Y14248000D01*
X6607648Y13970515D01*
X6693804Y13704731D01*
X6830156Y13460862D01*
X7011465Y13248280D01*
X7230763Y13075155D01*
X7479622Y12948139D01*
X7748479Y12872114D01*
X7750453Y12872021D01*
X7973000Y12925270D01*
X7973000Y15373000D01*
X8027000Y15373000D01*
X8027000Y12925270D01*
X8249547Y12872021D01*
X8251521Y12872114D01*
X8520378Y12948139D01*
X8769237Y13075155D01*
X8988535Y13248280D01*
X9169844Y13460862D01*
X9306196Y13704731D01*
X9392352Y13970515D01*
X9404511Y14073863D01*
X12450000Y14073863D01*
X12472428Y13846148D01*
X12561059Y13553972D01*
X12704987Y13284701D01*
X12898682Y13048682D01*
X13134700Y12854987D01*
X13403971Y12711059D01*
X13696147Y12622428D01*
X14000000Y12592501D01*
X14303852Y12622428D01*
X14596028Y12711059D01*
X14865299Y12854987D01*
X15101318Y13048682D01*
X15295013Y13284700D01*
X15438941Y13553971D01*
X15527572Y13846147D01*
X15550000Y14073862D01*
X15550000Y14253482D01*
X19368695Y14253482D01*
X19375778Y14217865D01*
X19444618Y14003193D01*
X19554015Y13806076D01*
X19699766Y13634088D01*
X19876270Y13493840D01*
X20076743Y13390721D01*
X20293482Y13328694D01*
X20473000Y13385316D01*
X20473000Y14433000D01*
X20527000Y14433000D01*
X20527000Y13385316D01*
X20706518Y13328694D01*
X20923257Y13390721D01*
X21123730Y13493840D01*
X21300234Y13634088D01*
X21445985Y13806076D01*
X21555382Y14003193D01*
X21624222Y14217865D01*
X21631305Y14253482D01*
X21574661Y14433000D01*
X20527000Y14433000D01*
X20473000Y14433000D01*
X19425339Y14433000D01*
X19368695Y14253482D01*
X15550000Y14253482D01*
X15550000Y14666518D01*
X19368695Y14666518D01*
X19425339Y14487000D01*
X20473000Y14487000D01*
X20473000Y15534684D01*
X20527000Y15534684D01*
X20527000Y14487000D01*
X21574661Y14487000D01*
X21631305Y14666518D01*
X21624222Y14702135D01*
X21555382Y14916807D01*
X21445985Y15113924D01*
X21300234Y15285912D01*
X21123730Y15426160D01*
X20923257Y15529279D01*
X20706518Y15591306D01*
X20527000Y15534684D01*
X20473000Y15534684D01*
X20293482Y15591306D01*
X20076743Y15529279D01*
X19876270Y15426160D01*
X19699766Y15285912D01*
X19554015Y15113924D01*
X19444618Y14916807D01*
X19375778Y14702135D01*
X19368695Y14666518D01*
X15550000Y14666518D01*
X15550000Y16726138D01*
X15527572Y16953853D01*
X15438941Y17246029D01*
X15295013Y17515300D01*
X15101318Y17751318D01*
X14981074Y17850000D01*
X19348549Y17850000D01*
X19348549Y16150000D01*
X19354341Y16091190D01*
X19371496Y16034640D01*
X19399353Y15982523D01*
X19436842Y15936842D01*
X19482523Y15899353D01*
X19534640Y15871496D01*
X19591190Y15854341D01*
X19650000Y15848549D01*
X21350000Y15848549D01*
X21408810Y15854341D01*
X21465360Y15871496D01*
X21517477Y15899353D01*
X21563158Y15936842D01*
X21600647Y15982523D01*
X21628504Y16034640D01*
X21645659Y16091190D01*
X21651451Y16150000D01*
X21651451Y16481629D01*
X54999812Y16481629D01*
X55120347Y16285909D01*
X55365150Y16148562D01*
X55632044Y16061614D01*
X55910773Y16028404D01*
X56190625Y16050209D01*
X56460846Y16126192D01*
X56711050Y16253433D01*
X56759653Y16285909D01*
X56880188Y16481629D01*
X60079812Y16481629D01*
X60200347Y16285909D01*
X60445150Y16148562D01*
X60712044Y16061614D01*
X60990773Y16028404D01*
X61270625Y16050209D01*
X61540846Y16126192D01*
X61791050Y16253433D01*
X61839653Y16285909D01*
X61960188Y16481629D01*
X61020000Y17421816D01*
X60079812Y16481629D01*
X56880188Y16481629D01*
X55940000Y17421816D01*
X54999812Y16481629D01*
X21651451Y16481629D01*
X21651451Y17489227D01*
X54508404Y17489227D01*
X54530209Y17209375D01*
X54606192Y16939154D01*
X54733433Y16688950D01*
X54765909Y16640347D01*
X54961629Y16519812D01*
X55901816Y17460000D01*
X54961629Y18400188D01*
X54765909Y18279653D01*
X54628562Y18034850D01*
X54541614Y17767956D01*
X54508404Y17489227D01*
X21651451Y17489227D01*
X21651451Y17850000D01*
X21645659Y17908810D01*
X21628504Y17965360D01*
X21600647Y18017477D01*
X21563158Y18063158D01*
X21517477Y18100647D01*
X21465360Y18128504D01*
X21408810Y18145659D01*
X21350000Y18151451D01*
X19650000Y18151451D01*
X19591190Y18145659D01*
X19534640Y18128504D01*
X19482523Y18100647D01*
X19436842Y18063158D01*
X19399353Y18017477D01*
X19371496Y17965360D01*
X19354341Y17908810D01*
X19348549Y17850000D01*
X14981074Y17850000D01*
X14865300Y17945013D01*
X14596029Y18088941D01*
X14303853Y18177572D01*
X14000000Y18207499D01*
X13696148Y18177572D01*
X13403972Y18088941D01*
X13134701Y17945013D01*
X12898683Y17751318D01*
X12704988Y17515300D01*
X12561060Y17246029D01*
X12472429Y16953853D01*
X12450001Y16726138D01*
X12450000Y14073863D01*
X9404511Y14073863D01*
X9425000Y14248000D01*
X9425000Y15373000D01*
X8027000Y15373000D01*
X7973000Y15373000D01*
X6575000Y15373000D01*
X325000Y15373000D01*
X325000Y16552000D01*
X6575000Y16552000D01*
X6575000Y15427000D01*
X7973000Y15427000D01*
X7973000Y17874730D01*
X8027000Y17874730D01*
X8027000Y15427000D01*
X9425000Y15427000D01*
X9425000Y16552000D01*
X9392352Y16829485D01*
X9306196Y17095269D01*
X9169844Y17339138D01*
X8988535Y17551720D01*
X8769237Y17724845D01*
X8520378Y17851861D01*
X8251521Y17927886D01*
X8249547Y17927979D01*
X8027000Y17874730D01*
X7973000Y17874730D01*
X7750453Y17927979D01*
X7748479Y17927886D01*
X7479622Y17851861D01*
X7230763Y17724845D01*
X7011465Y17551720D01*
X6830156Y17339138D01*
X6693804Y17095269D01*
X6607648Y16829485D01*
X6575000Y16552000D01*
X325000Y16552000D01*
X325000Y21561629D01*
X54999812Y21561629D01*
X55120347Y21365909D01*
X55365150Y21228562D01*
X55632044Y21141614D01*
X55910773Y21108404D01*
X56190625Y21130209D01*
X56460846Y21206192D01*
X56686719Y21321059D01*
X56508230Y21053933D01*
X56340505Y20649009D01*
X56255000Y20219143D01*
X56255000Y19780857D01*
X56340505Y19350991D01*
X56508230Y18946067D01*
X56690919Y18672654D01*
X56514850Y18771438D01*
X56247956Y18858386D01*
X55969227Y18891596D01*
X55689375Y18869791D01*
X55419154Y18793808D01*
X55168950Y18666567D01*
X55120347Y18634091D01*
X54999812Y18438371D01*
X55940000Y17498184D01*
X55954142Y17512326D01*
X55992326Y17474142D01*
X55978184Y17460000D01*
X56918371Y16519812D01*
X57114091Y16640347D01*
X57251438Y16885150D01*
X57338386Y17152044D01*
X57371596Y17430773D01*
X57349791Y17710625D01*
X57273808Y17980846D01*
X57158941Y18206719D01*
X57426067Y18028230D01*
X57830991Y17860505D01*
X58260857Y17775000D01*
X58699143Y17775000D01*
X59129009Y17860505D01*
X59533933Y18028230D01*
X59807346Y18210919D01*
X59708562Y18034850D01*
X59621614Y17767956D01*
X59588404Y17489227D01*
X59610209Y17209375D01*
X59686192Y16939154D01*
X59813433Y16688950D01*
X59845909Y16640347D01*
X60041629Y16519812D01*
X60981816Y17460000D01*
X61058184Y17460000D01*
X61998371Y16519812D01*
X62194091Y16640347D01*
X62331438Y16885150D01*
X62418386Y17152044D01*
X62451596Y17430773D01*
X62429791Y17710625D01*
X62353808Y17980846D01*
X62226567Y18231050D01*
X62194091Y18279653D01*
X61998371Y18400188D01*
X61058184Y17460000D01*
X60981816Y17460000D01*
X60967674Y17474142D01*
X61005858Y17512326D01*
X61020000Y17498184D01*
X61960188Y18438371D01*
X61839653Y18634091D01*
X61594850Y18771438D01*
X61327956Y18858386D01*
X61049227Y18891596D01*
X60769375Y18869791D01*
X60499154Y18793808D01*
X60273281Y18678941D01*
X60451770Y18946067D01*
X60619495Y19350991D01*
X60705000Y19780857D01*
X60705000Y20219143D01*
X60619495Y20649009D01*
X60451770Y21053933D01*
X60269081Y21327346D01*
X60445150Y21228562D01*
X60712044Y21141614D01*
X60990773Y21108404D01*
X61270625Y21130209D01*
X61540846Y21206192D01*
X61791050Y21333433D01*
X61839653Y21365909D01*
X61960188Y21561629D01*
X61020000Y22501816D01*
X61005858Y22487674D01*
X60967674Y22525858D01*
X60981816Y22540000D01*
X61058184Y22540000D01*
X61998371Y21599812D01*
X62194091Y21720347D01*
X62331438Y21965150D01*
X62418386Y22232044D01*
X62451596Y22510773D01*
X62429791Y22790625D01*
X62353808Y23060846D01*
X62226567Y23311050D01*
X62194091Y23359653D01*
X61998371Y23480188D01*
X61058184Y22540000D01*
X60981816Y22540000D01*
X60041629Y23480188D01*
X59845909Y23359653D01*
X59708562Y23114850D01*
X59621614Y22847956D01*
X59588404Y22569227D01*
X59610209Y22289375D01*
X59686192Y22019154D01*
X59801059Y21793281D01*
X59533933Y21971770D01*
X59129009Y22139495D01*
X58699143Y22225000D01*
X58260857Y22225000D01*
X57830991Y22139495D01*
X57426067Y21971770D01*
X57152654Y21789081D01*
X57251438Y21965150D01*
X57338386Y22232044D01*
X57371596Y22510773D01*
X57349791Y22790625D01*
X57273808Y23060846D01*
X57146567Y23311050D01*
X57114091Y23359653D01*
X56918371Y23480188D01*
X55978184Y22540000D01*
X55992326Y22525858D01*
X55954142Y22487674D01*
X55940000Y22501816D01*
X54999812Y21561629D01*
X325000Y21561629D01*
X325000Y22569227D01*
X54508404Y22569227D01*
X54530209Y22289375D01*
X54606192Y22019154D01*
X54733433Y21768950D01*
X54765909Y21720347D01*
X54961629Y21599812D01*
X55901816Y22540000D01*
X54961629Y23480188D01*
X54765909Y23359653D01*
X54628562Y23114850D01*
X54541614Y22847956D01*
X54508404Y22569227D01*
X325000Y22569227D01*
X325000Y23518371D01*
X54999812Y23518371D01*
X55940000Y22578184D01*
X56880188Y23518371D01*
X60079812Y23518371D01*
X61020000Y22578184D01*
X61960188Y23518371D01*
X61839653Y23714091D01*
X61594850Y23851438D01*
X61327956Y23938386D01*
X61049227Y23971596D01*
X60769375Y23949791D01*
X60499154Y23873808D01*
X60248950Y23746567D01*
X60200347Y23714091D01*
X60079812Y23518371D01*
X56880188Y23518371D01*
X56759653Y23714091D01*
X56514850Y23851438D01*
X56247956Y23938386D01*
X55969227Y23971596D01*
X55689375Y23949791D01*
X55419154Y23873808D01*
X55168950Y23746567D01*
X55120347Y23714091D01*
X54999812Y23518371D01*
X325000Y23518371D01*
X325000Y31481629D01*
X54999812Y31481629D01*
X55120347Y31285909D01*
X55365150Y31148562D01*
X55632044Y31061614D01*
X55910773Y31028404D01*
X56190625Y31050209D01*
X56460846Y31126192D01*
X56711050Y31253433D01*
X56759653Y31285909D01*
X56880188Y31481629D01*
X60079812Y31481629D01*
X60200347Y31285909D01*
X60445150Y31148562D01*
X60712044Y31061614D01*
X60990773Y31028404D01*
X61270625Y31050209D01*
X61540846Y31126192D01*
X61791050Y31253433D01*
X61839653Y31285909D01*
X61960188Y31481629D01*
X61020000Y32421816D01*
X60079812Y31481629D01*
X56880188Y31481629D01*
X55940000Y32421816D01*
X54999812Y31481629D01*
X325000Y31481629D01*
X325000Y32489227D01*
X54508404Y32489227D01*
X54530209Y32209375D01*
X54606192Y31939154D01*
X54733433Y31688950D01*
X54765909Y31640347D01*
X54961629Y31519812D01*
X55901816Y32460000D01*
X54961629Y33400188D01*
X54765909Y33279653D01*
X54628562Y33034850D01*
X54541614Y32767956D01*
X54508404Y32489227D01*
X325000Y32489227D01*
X325000Y34318944D01*
X14050000Y34318944D01*
X14050000Y34181056D01*
X14076901Y34045818D01*
X14129668Y33918426D01*
X14206274Y33803776D01*
X14303776Y33706274D01*
X14418426Y33629668D01*
X14545818Y33576901D01*
X14681056Y33550000D01*
X14818944Y33550000D01*
X14954182Y33576901D01*
X15081574Y33629668D01*
X15196224Y33706274D01*
X15293726Y33803776D01*
X15370332Y33918426D01*
X15423099Y34045818D01*
X15448995Y34176005D01*
X15579182Y34201901D01*
X15706574Y34254668D01*
X15821224Y34331274D01*
X15918726Y34428776D01*
X15995332Y34543426D01*
X16048099Y34670818D01*
X16073995Y34801005D01*
X16204182Y34826901D01*
X16331574Y34879668D01*
X16446224Y34956274D01*
X16543726Y35053776D01*
X16620332Y35168426D01*
X16673099Y35295818D01*
X16700000Y35431056D01*
X16700000Y35568944D01*
X16673099Y35704182D01*
X16620332Y35831574D01*
X16543726Y35946224D01*
X16446224Y36043726D01*
X16331574Y36120332D01*
X16204182Y36173099D01*
X16068944Y36200000D01*
X15931056Y36200000D01*
X15795818Y36173099D01*
X15668426Y36120332D01*
X15553776Y36043726D01*
X15456274Y35946224D01*
X15379668Y35831574D01*
X15326901Y35704182D01*
X15301005Y35573995D01*
X15170818Y35548099D01*
X15043426Y35495332D01*
X14928776Y35418726D01*
X14831274Y35321224D01*
X14754668Y35206574D01*
X14701901Y35079182D01*
X14676005Y34948995D01*
X14545818Y34923099D01*
X14418426Y34870332D01*
X14303776Y34793726D01*
X14206274Y34696224D01*
X14129668Y34581574D01*
X14076901Y34454182D01*
X14050000Y34318944D01*
X325000Y34318944D01*
X325000Y36561629D01*
X54999812Y36561629D01*
X55120347Y36365909D01*
X55365150Y36228562D01*
X55632044Y36141614D01*
X55910773Y36108404D01*
X56190625Y36130209D01*
X56460846Y36206192D01*
X56686719Y36321059D01*
X56508230Y36053933D01*
X56340505Y35649009D01*
X56255000Y35219143D01*
X56255000Y34780857D01*
X56340505Y34350991D01*
X56508230Y33946067D01*
X56690919Y33672654D01*
X56514850Y33771438D01*
X56247956Y33858386D01*
X55969227Y33891596D01*
X55689375Y33869791D01*
X55419154Y33793808D01*
X55168950Y33666567D01*
X55120347Y33634091D01*
X54999812Y33438371D01*
X55940000Y32498184D01*
X55954142Y32512326D01*
X55992326Y32474142D01*
X55978184Y32460000D01*
X56918371Y31519812D01*
X57114091Y31640347D01*
X57251438Y31885150D01*
X57338386Y32152044D01*
X57371596Y32430773D01*
X57349791Y32710625D01*
X57273808Y32980846D01*
X57158941Y33206719D01*
X57426067Y33028230D01*
X57830991Y32860505D01*
X58260857Y32775000D01*
X58699143Y32775000D01*
X59129009Y32860505D01*
X59533933Y33028230D01*
X59807346Y33210919D01*
X59708562Y33034850D01*
X59621614Y32767956D01*
X59588404Y32489227D01*
X59610209Y32209375D01*
X59686192Y31939154D01*
X59813433Y31688950D01*
X59845909Y31640347D01*
X60041629Y31519812D01*
X60981816Y32460000D01*
X61058184Y32460000D01*
X61998371Y31519812D01*
X62194091Y31640347D01*
X62331438Y31885150D01*
X62418386Y32152044D01*
X62451596Y32430773D01*
X62429791Y32710625D01*
X62353808Y32980846D01*
X62226567Y33231050D01*
X62194091Y33279653D01*
X61998371Y33400188D01*
X61058184Y32460000D01*
X60981816Y32460000D01*
X60967674Y32474142D01*
X61005858Y32512326D01*
X61020000Y32498184D01*
X61960188Y33438371D01*
X61839653Y33634091D01*
X61594850Y33771438D01*
X61327956Y33858386D01*
X61049227Y33891596D01*
X60769375Y33869791D01*
X60499154Y33793808D01*
X60273281Y33678941D01*
X60451770Y33946067D01*
X60619495Y34350991D01*
X60705000Y34780857D01*
X60705000Y35219143D01*
X60619495Y35649009D01*
X60451770Y36053933D01*
X60269081Y36327346D01*
X60445150Y36228562D01*
X60712044Y36141614D01*
X60990773Y36108404D01*
X61270625Y36130209D01*
X61540846Y36206192D01*
X61791050Y36333433D01*
X61839653Y36365909D01*
X61960188Y36561629D01*
X61020000Y37501816D01*
X61005858Y37487674D01*
X60967674Y37525858D01*
X60981816Y37540000D01*
X61058184Y37540000D01*
X61998371Y36599812D01*
X62194091Y36720347D01*
X62331438Y36965150D01*
X62418386Y37232044D01*
X62451596Y37510773D01*
X62429791Y37790625D01*
X62353808Y38060846D01*
X62226567Y38311050D01*
X62194091Y38359653D01*
X61998371Y38480188D01*
X61058184Y37540000D01*
X60981816Y37540000D01*
X60041629Y38480188D01*
X59845909Y38359653D01*
X59708562Y38114850D01*
X59621614Y37847956D01*
X59588404Y37569227D01*
X59610209Y37289375D01*
X59686192Y37019154D01*
X59801059Y36793281D01*
X59533933Y36971770D01*
X59129009Y37139495D01*
X58699143Y37225000D01*
X58260857Y37225000D01*
X57830991Y37139495D01*
X57426067Y36971770D01*
X57152654Y36789081D01*
X57251438Y36965150D01*
X57338386Y37232044D01*
X57371596Y37510773D01*
X57349791Y37790625D01*
X57273808Y38060846D01*
X57146567Y38311050D01*
X57114091Y38359653D01*
X56918371Y38480188D01*
X55978184Y37540000D01*
X55992326Y37525858D01*
X55954142Y37487674D01*
X55940000Y37501816D01*
X54999812Y36561629D01*
X325000Y36561629D01*
X325000Y37569227D01*
X54508404Y37569227D01*
X54530209Y37289375D01*
X54606192Y37019154D01*
X54733433Y36768950D01*
X54765909Y36720347D01*
X54961629Y36599812D01*
X55901816Y37540000D01*
X54961629Y38480188D01*
X54765909Y38359653D01*
X54628562Y38114850D01*
X54541614Y37847956D01*
X54508404Y37569227D01*
X325000Y37569227D01*
X325000Y38518371D01*
X54999812Y38518371D01*
X55940000Y37578184D01*
X56880188Y38518371D01*
X60079812Y38518371D01*
X61020000Y37578184D01*
X61960188Y38518371D01*
X61839653Y38714091D01*
X61594850Y38851438D01*
X61327956Y38938386D01*
X61049227Y38971596D01*
X60769375Y38949791D01*
X60499154Y38873808D01*
X60248950Y38746567D01*
X60200347Y38714091D01*
X60079812Y38518371D01*
X56880188Y38518371D01*
X56759653Y38714091D01*
X56514850Y38851438D01*
X56247956Y38938386D01*
X55969227Y38971596D01*
X55689375Y38949791D01*
X55419154Y38873808D01*
X55168950Y38746567D01*
X55120347Y38714091D01*
X54999812Y38518371D01*
X325000Y38518371D01*
X325000Y41968944D01*
X21600000Y41968944D01*
X21600000Y41831056D01*
X21626901Y41695818D01*
X21679668Y41568426D01*
X21756274Y41453776D01*
X21853776Y41356274D01*
X21968426Y41279668D01*
X22095818Y41226901D01*
X22231056Y41200000D01*
X22368944Y41200000D01*
X22504182Y41226901D01*
X22631574Y41279668D01*
X22746224Y41356274D01*
X22781500Y41391550D01*
X22785276Y41387774D01*
X22899926Y41311168D01*
X23027318Y41258401D01*
X23162556Y41231500D01*
X23300444Y41231500D01*
X23435682Y41258401D01*
X23563074Y41311168D01*
X23677724Y41387774D01*
X23681500Y41391550D01*
X23685276Y41387774D01*
X23799926Y41311168D01*
X23927318Y41258401D01*
X24062556Y41231500D01*
X24200444Y41231500D01*
X24335682Y41258401D01*
X24463074Y41311168D01*
X24577724Y41387774D01*
X24675226Y41485276D01*
X24751832Y41599926D01*
X24804599Y41727318D01*
X24831500Y41862556D01*
X24831500Y42000444D01*
X24804599Y42135682D01*
X24751832Y42263074D01*
X24675226Y42377724D01*
X24577724Y42475226D01*
X24463074Y42551832D01*
X24335682Y42604599D01*
X24200444Y42631500D01*
X24062556Y42631500D01*
X23927318Y42604599D01*
X23799926Y42551832D01*
X23685276Y42475226D01*
X23681500Y42471450D01*
X23677724Y42475226D01*
X23563074Y42551832D01*
X23435682Y42604599D01*
X23300444Y42631500D01*
X23162556Y42631500D01*
X23027318Y42604599D01*
X22899926Y42551832D01*
X22785276Y42475226D01*
X22750000Y42439950D01*
X22746224Y42443726D01*
X22631574Y42520332D01*
X22504182Y42573099D01*
X22368944Y42600000D01*
X22231056Y42600000D01*
X22095818Y42573099D01*
X21968426Y42520332D01*
X21853776Y42443726D01*
X21756274Y42346224D01*
X21679668Y42231574D01*
X21626901Y42104182D01*
X21600000Y41968944D01*
X325000Y41968944D01*
X325000Y46481629D01*
X54999812Y46481629D01*
X55120347Y46285909D01*
X55365150Y46148562D01*
X55632044Y46061614D01*
X55910773Y46028404D01*
X56190625Y46050209D01*
X56460846Y46126192D01*
X56711050Y46253433D01*
X56759653Y46285909D01*
X56880188Y46481629D01*
X60079812Y46481629D01*
X60200347Y46285909D01*
X60445150Y46148562D01*
X60712044Y46061614D01*
X60990773Y46028404D01*
X61270625Y46050209D01*
X61540846Y46126192D01*
X61791050Y46253433D01*
X61839653Y46285909D01*
X61960188Y46481629D01*
X61020000Y47421816D01*
X60079812Y46481629D01*
X56880188Y46481629D01*
X55940000Y47421816D01*
X54999812Y46481629D01*
X325000Y46481629D01*
X325000Y47489227D01*
X54508404Y47489227D01*
X54530209Y47209375D01*
X54606192Y46939154D01*
X54733433Y46688950D01*
X54765909Y46640347D01*
X54961629Y46519812D01*
X55901816Y47460000D01*
X54961629Y48400188D01*
X54765909Y48279653D01*
X54628562Y48034850D01*
X54541614Y47767956D01*
X54508404Y47489227D01*
X325000Y47489227D01*
X325000Y49637944D01*
X16969000Y49637944D01*
X16969000Y49500056D01*
X16995901Y49364818D01*
X17048668Y49237426D01*
X17125274Y49122776D01*
X17222776Y49025274D01*
X17337426Y48948668D01*
X17464818Y48895901D01*
X17600056Y48869000D01*
X17737944Y48869000D01*
X17873182Y48895901D01*
X18000574Y48948668D01*
X18115224Y49025274D01*
X18212726Y49122776D01*
X18289332Y49237426D01*
X18342099Y49364818D01*
X18369000Y49500056D01*
X18369000Y49637944D01*
X18342099Y49773182D01*
X18289332Y49900574D01*
X18248755Y49961302D01*
X18320332Y50068426D01*
X18373099Y50195818D01*
X18400000Y50331056D01*
X18400000Y50468944D01*
X18373099Y50604182D01*
X18320332Y50731574D01*
X18243726Y50846224D01*
X18146224Y50943726D01*
X18031574Y51020332D01*
X17904182Y51073099D01*
X17768944Y51100000D01*
X17631056Y51100000D01*
X17495818Y51073099D01*
X17368426Y51020332D01*
X17253776Y50943726D01*
X17156274Y50846224D01*
X17079668Y50731574D01*
X17026901Y50604182D01*
X17000000Y50468944D01*
X17000000Y50331056D01*
X17026901Y50195818D01*
X17079668Y50068426D01*
X17120245Y50007698D01*
X17048668Y49900574D01*
X16995901Y49773182D01*
X16969000Y49637944D01*
X325000Y49637944D01*
X325000Y51561629D01*
X54999812Y51561629D01*
X55120347Y51365909D01*
X55365150Y51228562D01*
X55632044Y51141614D01*
X55910773Y51108404D01*
X56190625Y51130209D01*
X56460846Y51206192D01*
X56686719Y51321059D01*
X56508230Y51053933D01*
X56340505Y50649009D01*
X56255000Y50219143D01*
X56255000Y49780857D01*
X56340505Y49350991D01*
X56508230Y48946067D01*
X56690919Y48672654D01*
X56514850Y48771438D01*
X56247956Y48858386D01*
X55969227Y48891596D01*
X55689375Y48869791D01*
X55419154Y48793808D01*
X55168950Y48666567D01*
X55120347Y48634091D01*
X54999812Y48438371D01*
X55940000Y47498184D01*
X55954142Y47512326D01*
X55992326Y47474142D01*
X55978184Y47460000D01*
X56918371Y46519812D01*
X57114091Y46640347D01*
X57251438Y46885150D01*
X57338386Y47152044D01*
X57371596Y47430773D01*
X57349791Y47710625D01*
X57273808Y47980846D01*
X57158941Y48206719D01*
X57426067Y48028230D01*
X57830991Y47860505D01*
X58260857Y47775000D01*
X58699143Y47775000D01*
X59129009Y47860505D01*
X59533933Y48028230D01*
X59807346Y48210919D01*
X59708562Y48034850D01*
X59621614Y47767956D01*
X59588404Y47489227D01*
X59610209Y47209375D01*
X59686192Y46939154D01*
X59813433Y46688950D01*
X59845909Y46640347D01*
X60041629Y46519812D01*
X60981816Y47460000D01*
X61058184Y47460000D01*
X61998371Y46519812D01*
X62194091Y46640347D01*
X62331438Y46885150D01*
X62418386Y47152044D01*
X62451596Y47430773D01*
X62429791Y47710625D01*
X62353808Y47980846D01*
X62226567Y48231050D01*
X62194091Y48279653D01*
X61998371Y48400188D01*
X61058184Y47460000D01*
X60981816Y47460000D01*
X60967674Y47474142D01*
X61005858Y47512326D01*
X61020000Y47498184D01*
X61960188Y48438371D01*
X61839653Y48634091D01*
X61594850Y48771438D01*
X61327956Y48858386D01*
X61049227Y48891596D01*
X60769375Y48869791D01*
X60499154Y48793808D01*
X60273281Y48678941D01*
X60451770Y48946067D01*
X60619495Y49350991D01*
X60705000Y49780857D01*
X60705000Y50219143D01*
X60619495Y50649009D01*
X60451770Y51053933D01*
X60269081Y51327346D01*
X60445150Y51228562D01*
X60712044Y51141614D01*
X60990773Y51108404D01*
X61270625Y51130209D01*
X61540846Y51206192D01*
X61791050Y51333433D01*
X61839653Y51365909D01*
X61960188Y51561629D01*
X61020000Y52501816D01*
X61005858Y52487674D01*
X60967674Y52525858D01*
X60981816Y52540000D01*
X61058184Y52540000D01*
X61998371Y51599812D01*
X62194091Y51720347D01*
X62331438Y51965150D01*
X62418386Y52232044D01*
X62451596Y52510773D01*
X62429791Y52790625D01*
X62353808Y53060846D01*
X62226567Y53311050D01*
X62194091Y53359653D01*
X61998371Y53480188D01*
X61058184Y52540000D01*
X60981816Y52540000D01*
X60041629Y53480188D01*
X59845909Y53359653D01*
X59708562Y53114850D01*
X59621614Y52847956D01*
X59588404Y52569227D01*
X59610209Y52289375D01*
X59686192Y52019154D01*
X59801059Y51793281D01*
X59533933Y51971770D01*
X59129009Y52139495D01*
X58699143Y52225000D01*
X58260857Y52225000D01*
X57830991Y52139495D01*
X57426067Y51971770D01*
X57152654Y51789081D01*
X57251438Y51965150D01*
X57338386Y52232044D01*
X57371596Y52510773D01*
X57349791Y52790625D01*
X57273808Y53060846D01*
X57146567Y53311050D01*
X57114091Y53359653D01*
X56918371Y53480188D01*
X55978184Y52540000D01*
X55992326Y52525858D01*
X55954142Y52487674D01*
X55940000Y52501816D01*
X54999812Y51561629D01*
X325000Y51561629D01*
X325000Y52569227D01*
X54508404Y52569227D01*
X54530209Y52289375D01*
X54606192Y52019154D01*
X54733433Y51768950D01*
X54765909Y51720347D01*
X54961629Y51599812D01*
X55901816Y52540000D01*
X54961629Y53480188D01*
X54765909Y53359653D01*
X54628562Y53114850D01*
X54541614Y52847956D01*
X54508404Y52569227D01*
X325000Y52569227D01*
X325000Y53518371D01*
X54999812Y53518371D01*
X55940000Y52578184D01*
X56880188Y53518371D01*
X60079812Y53518371D01*
X61020000Y52578184D01*
X61960188Y53518371D01*
X61839653Y53714091D01*
X61594850Y53851438D01*
X61327956Y53938386D01*
X61049227Y53971596D01*
X60769375Y53949791D01*
X60499154Y53873808D01*
X60248950Y53746567D01*
X60200347Y53714091D01*
X60079812Y53518371D01*
X56880188Y53518371D01*
X56759653Y53714091D01*
X56514850Y53851438D01*
X56247956Y53938386D01*
X55969227Y53971596D01*
X55689375Y53949791D01*
X55419154Y53873808D01*
X55168950Y53746567D01*
X55120347Y53714091D01*
X54999812Y53518371D01*
X325000Y53518371D01*
X325000Y61481629D01*
X54999812Y61481629D01*
X55120347Y61285909D01*
X55365150Y61148562D01*
X55632044Y61061614D01*
X55910773Y61028404D01*
X56190625Y61050209D01*
X56460846Y61126192D01*
X56711050Y61253433D01*
X56759653Y61285909D01*
X56880188Y61481629D01*
X60079812Y61481629D01*
X60200347Y61285909D01*
X60445150Y61148562D01*
X60712044Y61061614D01*
X60990773Y61028404D01*
X61270625Y61050209D01*
X61540846Y61126192D01*
X61791050Y61253433D01*
X61839653Y61285909D01*
X61960188Y61481629D01*
X61020000Y62421816D01*
X60079812Y61481629D01*
X56880188Y61481629D01*
X55940000Y62421816D01*
X54999812Y61481629D01*
X325000Y61481629D01*
X325000Y62489227D01*
X54508404Y62489227D01*
X54530209Y62209375D01*
X54606192Y61939154D01*
X54733433Y61688950D01*
X54765909Y61640347D01*
X54961629Y61519812D01*
X55901816Y62460000D01*
X54961629Y63400188D01*
X54765909Y63279653D01*
X54628562Y63034850D01*
X54541614Y62767956D01*
X54508404Y62489227D01*
X325000Y62489227D01*
X325000Y66561629D01*
X54999812Y66561629D01*
X55120347Y66365909D01*
X55365150Y66228562D01*
X55632044Y66141614D01*
X55910773Y66108404D01*
X56190625Y66130209D01*
X56460846Y66206192D01*
X56686719Y66321059D01*
X56508230Y66053933D01*
X56340505Y65649009D01*
X56255000Y65219143D01*
X56255000Y64780857D01*
X56340505Y64350991D01*
X56508230Y63946067D01*
X56690919Y63672654D01*
X56514850Y63771438D01*
X56247956Y63858386D01*
X55969227Y63891596D01*
X55689375Y63869791D01*
X55419154Y63793808D01*
X55168950Y63666567D01*
X55120347Y63634091D01*
X54999812Y63438371D01*
X55940000Y62498184D01*
X55954142Y62512326D01*
X55992326Y62474142D01*
X55978184Y62460000D01*
X56918371Y61519812D01*
X57114091Y61640347D01*
X57251438Y61885150D01*
X57338386Y62152044D01*
X57371596Y62430773D01*
X57349791Y62710625D01*
X57273808Y62980846D01*
X57158941Y63206719D01*
X57426067Y63028230D01*
X57830991Y62860505D01*
X58260857Y62775000D01*
X58699143Y62775000D01*
X59129009Y62860505D01*
X59533933Y63028230D01*
X59807346Y63210919D01*
X59708562Y63034850D01*
X59621614Y62767956D01*
X59588404Y62489227D01*
X59610209Y62209375D01*
X59686192Y61939154D01*
X59813433Y61688950D01*
X59845909Y61640347D01*
X60041629Y61519812D01*
X60981816Y62460000D01*
X61058184Y62460000D01*
X61998371Y61519812D01*
X62194091Y61640347D01*
X62331438Y61885150D01*
X62418386Y62152044D01*
X62451596Y62430773D01*
X62429791Y62710625D01*
X62353808Y62980846D01*
X62226567Y63231050D01*
X62194091Y63279653D01*
X61998371Y63400188D01*
X61058184Y62460000D01*
X60981816Y62460000D01*
X60967674Y62474142D01*
X61005858Y62512326D01*
X61020000Y62498184D01*
X61960188Y63438371D01*
X61839653Y63634091D01*
X61594850Y63771438D01*
X61327956Y63858386D01*
X61049227Y63891596D01*
X60769375Y63869791D01*
X60499154Y63793808D01*
X60273281Y63678941D01*
X60451770Y63946067D01*
X60619495Y64350991D01*
X60705000Y64780857D01*
X60705000Y65219143D01*
X60619495Y65649009D01*
X60451770Y66053933D01*
X60269081Y66327346D01*
X60445150Y66228562D01*
X60712044Y66141614D01*
X60990773Y66108404D01*
X61270625Y66130209D01*
X61540846Y66206192D01*
X61791050Y66333433D01*
X61839653Y66365909D01*
X61960188Y66561629D01*
X61020000Y67501816D01*
X61005858Y67487674D01*
X60967674Y67525858D01*
X60981816Y67540000D01*
X61058184Y67540000D01*
X61998371Y66599812D01*
X62194091Y66720347D01*
X62331438Y66965150D01*
X62418386Y67232044D01*
X62451596Y67510773D01*
X62429791Y67790625D01*
X62353808Y68060846D01*
X62226567Y68311050D01*
X62194091Y68359653D01*
X61998371Y68480188D01*
X61058184Y67540000D01*
X60981816Y67540000D01*
X60041629Y68480188D01*
X59845909Y68359653D01*
X59708562Y68114850D01*
X59621614Y67847956D01*
X59588404Y67569227D01*
X59610209Y67289375D01*
X59686192Y67019154D01*
X59801059Y66793281D01*
X59533933Y66971770D01*
X59129009Y67139495D01*
X58699143Y67225000D01*
X58260857Y67225000D01*
X57830991Y67139495D01*
X57426067Y66971770D01*
X57152654Y66789081D01*
X57251438Y66965150D01*
X57338386Y67232044D01*
X57371596Y67510773D01*
X57349791Y67790625D01*
X57273808Y68060846D01*
X57146567Y68311050D01*
X57114091Y68359653D01*
X56918371Y68480188D01*
X55978184Y67540000D01*
X55992326Y67525858D01*
X55954142Y67487674D01*
X55940000Y67501816D01*
X54999812Y66561629D01*
X325000Y66561629D01*
X325000Y67569227D01*
X54508404Y67569227D01*
X54530209Y67289375D01*
X54606192Y67019154D01*
X54733433Y66768950D01*
X54765909Y66720347D01*
X54961629Y66599812D01*
X55901816Y67540000D01*
X54961629Y68480188D01*
X54765909Y68359653D01*
X54628562Y68114850D01*
X54541614Y67847956D01*
X54508404Y67569227D01*
X325000Y67569227D01*
X325000Y68518371D01*
X54999812Y68518371D01*
X55940000Y67578184D01*
X56880188Y68518371D01*
X60079812Y68518371D01*
X61020000Y67578184D01*
X61960188Y68518371D01*
X61839653Y68714091D01*
X61594850Y68851438D01*
X61327956Y68938386D01*
X61049227Y68971596D01*
X60769375Y68949791D01*
X60499154Y68873808D01*
X60248950Y68746567D01*
X60200347Y68714091D01*
X60079812Y68518371D01*
X56880188Y68518371D01*
X56759653Y68714091D01*
X56514850Y68851438D01*
X56247956Y68938386D01*
X55969227Y68971596D01*
X55689375Y68949791D01*
X55419154Y68873808D01*
X55168950Y68746567D01*
X55120347Y68714091D01*
X54999812Y68518371D01*
X325000Y68518371D01*
X325000Y76481629D01*
X54999812Y76481629D01*
X55120347Y76285909D01*
X55365150Y76148562D01*
X55632044Y76061614D01*
X55910773Y76028404D01*
X56190625Y76050209D01*
X56460846Y76126192D01*
X56711050Y76253433D01*
X56759653Y76285909D01*
X56880188Y76481629D01*
X60079812Y76481629D01*
X60200347Y76285909D01*
X60445150Y76148562D01*
X60712044Y76061614D01*
X60990773Y76028404D01*
X61270625Y76050209D01*
X61540846Y76126192D01*
X61791050Y76253433D01*
X61839653Y76285909D01*
X61960188Y76481629D01*
X61020000Y77421816D01*
X60079812Y76481629D01*
X56880188Y76481629D01*
X55940000Y77421816D01*
X54999812Y76481629D01*
X325000Y76481629D01*
X325000Y77489227D01*
X54508404Y77489227D01*
X54530209Y77209375D01*
X54606192Y76939154D01*
X54733433Y76688950D01*
X54765909Y76640347D01*
X54961629Y76519812D01*
X55901816Y77460000D01*
X54961629Y78400188D01*
X54765909Y78279653D01*
X54628562Y78034850D01*
X54541614Y77767956D01*
X54508404Y77489227D01*
X325000Y77489227D01*
X325000Y81561629D01*
X54999812Y81561629D01*
X55120347Y81365909D01*
X55365150Y81228562D01*
X55632044Y81141614D01*
X55910773Y81108404D01*
X56190625Y81130209D01*
X56460846Y81206192D01*
X56686719Y81321059D01*
X56508230Y81053933D01*
X56340505Y80649009D01*
X56255000Y80219143D01*
X56255000Y79780857D01*
X56340505Y79350991D01*
X56508230Y78946067D01*
X56690919Y78672654D01*
X56514850Y78771438D01*
X56247956Y78858386D01*
X55969227Y78891596D01*
X55689375Y78869791D01*
X55419154Y78793808D01*
X55168950Y78666567D01*
X55120347Y78634091D01*
X54999812Y78438371D01*
X55940000Y77498184D01*
X55954142Y77512326D01*
X55992326Y77474142D01*
X55978184Y77460000D01*
X56918371Y76519812D01*
X57114091Y76640347D01*
X57251438Y76885150D01*
X57338386Y77152044D01*
X57371596Y77430773D01*
X57349791Y77710625D01*
X57273808Y77980846D01*
X57158941Y78206719D01*
X57426067Y78028230D01*
X57830991Y77860505D01*
X58260857Y77775000D01*
X58699143Y77775000D01*
X59129009Y77860505D01*
X59533933Y78028230D01*
X59807346Y78210919D01*
X59708562Y78034850D01*
X59621614Y77767956D01*
X59588404Y77489227D01*
X59610209Y77209375D01*
X59686192Y76939154D01*
X59813433Y76688950D01*
X59845909Y76640347D01*
X60041629Y76519812D01*
X60981816Y77460000D01*
X61058184Y77460000D01*
X61998371Y76519812D01*
X62194091Y76640347D01*
X62331438Y76885150D01*
X62418386Y77152044D01*
X62451596Y77430773D01*
X62429791Y77710625D01*
X62353808Y77980846D01*
X62226567Y78231050D01*
X62194091Y78279653D01*
X61998371Y78400188D01*
X61058184Y77460000D01*
X60981816Y77460000D01*
X60967674Y77474142D01*
X61005858Y77512326D01*
X61020000Y77498184D01*
X61960188Y78438371D01*
X61839653Y78634091D01*
X61594850Y78771438D01*
X61327956Y78858386D01*
X61049227Y78891596D01*
X60769375Y78869791D01*
X60499154Y78793808D01*
X60273281Y78678941D01*
X60451770Y78946067D01*
X60619495Y79350991D01*
X60705000Y79780857D01*
X60705000Y80219143D01*
X60619495Y80649009D01*
X60451770Y81053933D01*
X60269081Y81327346D01*
X60445150Y81228562D01*
X60712044Y81141614D01*
X60990773Y81108404D01*
X61270625Y81130209D01*
X61540846Y81206192D01*
X61791050Y81333433D01*
X61839653Y81365909D01*
X61960188Y81561629D01*
X61020000Y82501816D01*
X61005858Y82487674D01*
X60967674Y82525858D01*
X60981816Y82540000D01*
X61058184Y82540000D01*
X61998371Y81599812D01*
X62194091Y81720347D01*
X62331438Y81965150D01*
X62418386Y82232044D01*
X62451596Y82510773D01*
X62429791Y82790625D01*
X62353808Y83060846D01*
X62226567Y83311050D01*
X62194091Y83359653D01*
X61998371Y83480188D01*
X61058184Y82540000D01*
X60981816Y82540000D01*
X60041629Y83480188D01*
X59845909Y83359653D01*
X59708562Y83114850D01*
X59621614Y82847956D01*
X59588404Y82569227D01*
X59610209Y82289375D01*
X59686192Y82019154D01*
X59801059Y81793281D01*
X59533933Y81971770D01*
X59129009Y82139495D01*
X58699143Y82225000D01*
X58260857Y82225000D01*
X57830991Y82139495D01*
X57426067Y81971770D01*
X57152654Y81789081D01*
X57251438Y81965150D01*
X57338386Y82232044D01*
X57371596Y82510773D01*
X57349791Y82790625D01*
X57273808Y83060846D01*
X57146567Y83311050D01*
X57114091Y83359653D01*
X56918371Y83480188D01*
X55978184Y82540000D01*
X55992326Y82525858D01*
X55954142Y82487674D01*
X55940000Y82501816D01*
X54999812Y81561629D01*
X325000Y81561629D01*
X325000Y82569227D01*
X54508404Y82569227D01*
X54530209Y82289375D01*
X54606192Y82019154D01*
X54733433Y81768950D01*
X54765909Y81720347D01*
X54961629Y81599812D01*
X55901816Y82540000D01*
X54961629Y83480188D01*
X54765909Y83359653D01*
X54628562Y83114850D01*
X54541614Y82847956D01*
X54508404Y82569227D01*
X325000Y82569227D01*
X325000Y83518371D01*
X54999812Y83518371D01*
X55940000Y82578184D01*
X56880188Y83518371D01*
X60079812Y83518371D01*
X61020000Y82578184D01*
X61960188Y83518371D01*
X61839653Y83714091D01*
X61594850Y83851438D01*
X61327956Y83938386D01*
X61049227Y83971596D01*
X60769375Y83949791D01*
X60499154Y83873808D01*
X60248950Y83746567D01*
X60200347Y83714091D01*
X60079812Y83518371D01*
X56880188Y83518371D01*
X56759653Y83714091D01*
X56514850Y83851438D01*
X56247956Y83938386D01*
X55969227Y83971596D01*
X55689375Y83949791D01*
X55419154Y83873808D01*
X55168950Y83746567D01*
X55120347Y83714091D01*
X54999812Y83518371D01*
X325000Y83518371D01*
X325000Y91547167D01*
X3585351Y91547167D01*
X3954702Y91138954D01*
X4552164Y90794911D01*
X5205266Y90574037D01*
X5888909Y90484820D01*
X6576821Y90530691D01*
X7242566Y90709884D01*
X7860561Y91015516D01*
X8045298Y91138954D01*
X8414649Y91547167D01*
X55085351Y91547167D01*
X55454702Y91138954D01*
X56052164Y90794911D01*
X56705266Y90574037D01*
X57388909Y90484820D01*
X58076821Y90530691D01*
X58742566Y90709884D01*
X59360561Y91015516D01*
X59545298Y91138954D01*
X59914649Y91547167D01*
X59621891Y91839925D01*
X59621891Y91839926D01*
X59197056Y92264760D01*
X59021045Y92440771D01*
X58734038Y92727779D01*
X58734037Y92727779D01*
X57500000Y93961816D01*
X56265963Y92727779D01*
X56265962Y92727779D01*
X55978955Y92440771D01*
X55802944Y92264760D01*
X55378109Y91839926D01*
X55378109Y91839925D01*
X55085351Y91547167D01*
X8414649Y91547167D01*
X8121891Y91839925D01*
X8121891Y91839926D01*
X7697056Y92264760D01*
X7521045Y92440771D01*
X7234038Y92727779D01*
X7234037Y92727779D01*
X6000000Y93961816D01*
X4765963Y92727779D01*
X4765962Y92727779D01*
X4478955Y92440771D01*
X4302944Y92264760D01*
X3878109Y91839926D01*
X3878109Y91839925D01*
X3585351Y91547167D01*
X325000Y91547167D01*
X325000Y94111091D01*
X2484820Y94111091D01*
X2530691Y93423179D01*
X2709884Y92757434D01*
X3015516Y92139439D01*
X3138954Y91954702D01*
X3547167Y91585351D01*
X3839925Y91878109D01*
X3839926Y91878109D01*
X4264760Y92302944D01*
X4302944Y92341128D01*
X4727779Y92765962D01*
X4727779Y92765963D01*
X5961816Y94000000D01*
X6038184Y94000000D01*
X7272221Y92765963D01*
X7272221Y92765962D01*
X7697056Y92341128D01*
X7735240Y92302944D01*
X8160074Y91878109D01*
X8160075Y91878109D01*
X8452833Y91585351D01*
X8861046Y91954702D01*
X9205089Y92552164D01*
X9425963Y93205266D01*
X9515180Y93888909D01*
X9500365Y94111091D01*
X53984820Y94111091D01*
X54030691Y93423179D01*
X54209884Y92757434D01*
X54515516Y92139439D01*
X54638954Y91954702D01*
X55047167Y91585351D01*
X55339925Y91878109D01*
X55339926Y91878109D01*
X55764760Y92302944D01*
X55802944Y92341128D01*
X56227779Y92765962D01*
X56227779Y92765963D01*
X57461816Y94000000D01*
X57538184Y94000000D01*
X58772221Y92765963D01*
X58772221Y92765962D01*
X59197056Y92341128D01*
X59235240Y92302944D01*
X59660074Y91878109D01*
X59660075Y91878109D01*
X59952833Y91585351D01*
X60361046Y91954702D01*
X60705089Y92552164D01*
X60925963Y93205266D01*
X61015180Y93888909D01*
X60969309Y94576821D01*
X60790116Y95242566D01*
X60484484Y95860561D01*
X60361046Y96045298D01*
X59952833Y96414649D01*
X59660075Y96121891D01*
X59660074Y96121891D01*
X59398745Y95860561D01*
X59197056Y95658872D01*
X58772221Y95234038D01*
X58772221Y95234037D01*
X57538184Y94000000D01*
X57461816Y94000000D01*
X56227779Y95234037D01*
X56227779Y95234038D01*
X55802944Y95658872D01*
X55601255Y95860561D01*
X55339926Y96121891D01*
X55339925Y96121891D01*
X55047167Y96414649D01*
X54638954Y96045298D01*
X54294911Y95447836D01*
X54074037Y94794734D01*
X53984820Y94111091D01*
X9500365Y94111091D01*
X9469309Y94576821D01*
X9290116Y95242566D01*
X8984484Y95860561D01*
X8861046Y96045298D01*
X8452833Y96414649D01*
X8160075Y96121891D01*
X8160074Y96121891D01*
X7898745Y95860561D01*
X7697056Y95658872D01*
X7272221Y95234038D01*
X7272221Y95234037D01*
X6038184Y94000000D01*
X5961816Y94000000D01*
X4727779Y95234037D01*
X4727779Y95234038D01*
X4302944Y95658872D01*
X4101255Y95860561D01*
X3839926Y96121891D01*
X3839925Y96121891D01*
X3547167Y96414649D01*
X3138954Y96045298D01*
X2794911Y95447836D01*
X2574037Y94794734D01*
X2484820Y94111091D01*
X325000Y94111091D01*
X325000Y96452833D01*
X3585351Y96452833D01*
X3878109Y96160075D01*
X3878109Y96160074D01*
X4302944Y95735240D01*
X4341128Y95697056D01*
X4765962Y95272221D01*
X4765963Y95272221D01*
X6000000Y94038184D01*
X7234037Y95272221D01*
X7234038Y95272221D01*
X7658872Y95697056D01*
X7697056Y95735240D01*
X8121891Y96160074D01*
X8121891Y96160075D01*
X8414649Y96452833D01*
X55085351Y96452833D01*
X55378109Y96160075D01*
X55378109Y96160074D01*
X55802944Y95735240D01*
X55841128Y95697056D01*
X56265962Y95272221D01*
X56265963Y95272221D01*
X57500000Y94038184D01*
X58734037Y95272221D01*
X58734038Y95272221D01*
X59158872Y95697056D01*
X59197056Y95735240D01*
X59621891Y96160074D01*
X59621891Y96160075D01*
X59914649Y96452833D01*
X59545298Y96861046D01*
X58947836Y97205089D01*
X58294734Y97425963D01*
X57611091Y97515180D01*
X56923179Y97469309D01*
X56257434Y97290116D01*
X55639439Y96984484D01*
X55454702Y96861046D01*
X55085351Y96452833D01*
X8414649Y96452833D01*
X8045298Y96861046D01*
X7447836Y97205089D01*
X6794734Y97425963D01*
X6111091Y97515180D01*
X5423179Y97469309D01*
X4757434Y97290116D01*
X4139439Y96984484D01*
X3954702Y96861046D01*
X3585351Y96452833D01*
X325000Y96452833D01*
X325000Y99675000D01*
X63155001Y99675000D01*
X63155000Y325000D01*
G04 #@! TA.AperFunction,Conductor*
D19*
G36*
X63155000Y325000D02*
G01*
X325000Y325000D01*
X325000Y3547167D01*
X3585351Y3547167D01*
X3954702Y3138954D01*
X4552164Y2794911D01*
X5205266Y2574037D01*
X5888909Y2484820D01*
X6576821Y2530691D01*
X7242566Y2709884D01*
X7860561Y3015516D01*
X8045298Y3138954D01*
X8414649Y3547167D01*
X55085351Y3547167D01*
X55454702Y3138954D01*
X56052164Y2794911D01*
X56705266Y2574037D01*
X57388909Y2484820D01*
X58076821Y2530691D01*
X58742566Y2709884D01*
X59360561Y3015516D01*
X59545298Y3138954D01*
X59914649Y3547167D01*
X59621891Y3839925D01*
X59621891Y3839926D01*
X59197056Y4264760D01*
X59021045Y4440771D01*
X58734038Y4727779D01*
X58734037Y4727779D01*
X57500000Y5961816D01*
X56265963Y4727779D01*
X56265962Y4727779D01*
X55978955Y4440771D01*
X55802944Y4264760D01*
X55378109Y3839926D01*
X55378109Y3839925D01*
X55085351Y3547167D01*
X8414649Y3547167D01*
X8121891Y3839925D01*
X8121891Y3839926D01*
X7697056Y4264760D01*
X7521045Y4440771D01*
X7234038Y4727779D01*
X7234037Y4727779D01*
X6000000Y5961816D01*
X4765963Y4727779D01*
X4765962Y4727779D01*
X4478955Y4440771D01*
X4302944Y4264760D01*
X3878109Y3839926D01*
X3878109Y3839925D01*
X3585351Y3547167D01*
X325000Y3547167D01*
X325000Y6111091D01*
X2484820Y6111091D01*
X2530691Y5423179D01*
X2709884Y4757434D01*
X3015516Y4139439D01*
X3138954Y3954702D01*
X3547167Y3585351D01*
X3839925Y3878109D01*
X3839926Y3878109D01*
X4264760Y4302944D01*
X4302944Y4341128D01*
X4727779Y4765962D01*
X4727779Y4765963D01*
X5961816Y6000000D01*
X6038184Y6000000D01*
X7272221Y4765963D01*
X7272221Y4765962D01*
X7697056Y4341128D01*
X7735240Y4302944D01*
X8160074Y3878109D01*
X8160075Y3878109D01*
X8452833Y3585351D01*
X8861046Y3954702D01*
X9205089Y4552164D01*
X9425963Y5205266D01*
X9515180Y5888909D01*
X9500365Y6111091D01*
X53984820Y6111091D01*
X54030691Y5423179D01*
X54209884Y4757434D01*
X54515516Y4139439D01*
X54638954Y3954702D01*
X55047167Y3585351D01*
X55339925Y3878109D01*
X55339926Y3878109D01*
X55764760Y4302944D01*
X55802944Y4341128D01*
X56227779Y4765962D01*
X56227779Y4765963D01*
X57461816Y6000000D01*
X57538184Y6000000D01*
X58772221Y4765963D01*
X58772221Y4765962D01*
X59197056Y4341128D01*
X59235240Y4302944D01*
X59660074Y3878109D01*
X59660075Y3878109D01*
X59952833Y3585351D01*
X60361046Y3954702D01*
X60705089Y4552164D01*
X60925963Y5205266D01*
X61015180Y5888909D01*
X60969309Y6576821D01*
X60790116Y7242566D01*
X60484484Y7860561D01*
X60361046Y8045298D01*
X59952833Y8414649D01*
X59660075Y8121891D01*
X59660074Y8121891D01*
X59398745Y7860561D01*
X59197056Y7658872D01*
X58772221Y7234038D01*
X58772221Y7234037D01*
X57538184Y6000000D01*
X57461816Y6000000D01*
X56227779Y7234037D01*
X56227779Y7234038D01*
X55802944Y7658872D01*
X55601255Y7860561D01*
X55339926Y8121891D01*
X55339925Y8121891D01*
X55047167Y8414649D01*
X54638954Y8045298D01*
X54294911Y7447836D01*
X54074037Y6794734D01*
X53984820Y6111091D01*
X9500365Y6111091D01*
X9469309Y6576821D01*
X9290116Y7242566D01*
X8984484Y7860561D01*
X8861046Y8045298D01*
X8452833Y8414649D01*
X8160075Y8121891D01*
X8160074Y8121891D01*
X7898745Y7860561D01*
X7697056Y7658872D01*
X7272221Y7234038D01*
X7272221Y7234037D01*
X6038184Y6000000D01*
X5961816Y6000000D01*
X4727779Y7234037D01*
X4727779Y7234038D01*
X4302944Y7658872D01*
X4101255Y7860561D01*
X3839926Y8121891D01*
X3839925Y8121891D01*
X3547167Y8414649D01*
X3138954Y8045298D01*
X2794911Y7447836D01*
X2574037Y6794734D01*
X2484820Y6111091D01*
X325000Y6111091D01*
X325000Y8452833D01*
X3585351Y8452833D01*
X3878109Y8160075D01*
X3878109Y8160074D01*
X4302944Y7735240D01*
X4341128Y7697056D01*
X4765962Y7272221D01*
X4765963Y7272221D01*
X6000000Y6038184D01*
X7234037Y7272221D01*
X7234038Y7272221D01*
X7658872Y7697056D01*
X7697056Y7735240D01*
X8121891Y8160074D01*
X8121891Y8160075D01*
X8414649Y8452833D01*
X55085351Y8452833D01*
X55378109Y8160075D01*
X55378109Y8160074D01*
X55802944Y7735240D01*
X55841128Y7697056D01*
X56265962Y7272221D01*
X56265963Y7272221D01*
X57500000Y6038184D01*
X58734037Y7272221D01*
X58734038Y7272221D01*
X59158872Y7697056D01*
X59197056Y7735240D01*
X59621891Y8160074D01*
X59621891Y8160075D01*
X59914649Y8452833D01*
X59545298Y8861046D01*
X58947836Y9205089D01*
X58294734Y9425963D01*
X57611091Y9515180D01*
X56923179Y9469309D01*
X56257434Y9290116D01*
X55639439Y8984484D01*
X55454702Y8861046D01*
X55085351Y8452833D01*
X8414649Y8452833D01*
X8045298Y8861046D01*
X7447836Y9205089D01*
X6794734Y9425963D01*
X6111091Y9515180D01*
X5423179Y9469309D01*
X4757434Y9290116D01*
X4139439Y8984484D01*
X3954702Y8861046D01*
X3585351Y8452833D01*
X325000Y8452833D01*
X325000Y15373000D01*
X6575000Y15373000D01*
X6575000Y14248000D01*
X6607648Y13970515D01*
X6693804Y13704731D01*
X6830156Y13460862D01*
X7011465Y13248280D01*
X7230763Y13075155D01*
X7479622Y12948139D01*
X7748479Y12872114D01*
X7750453Y12872021D01*
X7973000Y12925270D01*
X7973000Y15373000D01*
X8027000Y15373000D01*
X8027000Y12925270D01*
X8249547Y12872021D01*
X8251521Y12872114D01*
X8520378Y12948139D01*
X8769237Y13075155D01*
X8988535Y13248280D01*
X9169844Y13460862D01*
X9306196Y13704731D01*
X9392352Y13970515D01*
X9404511Y14073863D01*
X12450000Y14073863D01*
X12472428Y13846148D01*
X12561059Y13553972D01*
X12704987Y13284701D01*
X12898682Y13048682D01*
X13134700Y12854987D01*
X13403971Y12711059D01*
X13696147Y12622428D01*
X14000000Y12592501D01*
X14303852Y12622428D01*
X14596028Y12711059D01*
X14865299Y12854987D01*
X15101318Y13048682D01*
X15295013Y13284700D01*
X15438941Y13553971D01*
X15527572Y13846147D01*
X15550000Y14073862D01*
X15550000Y14253482D01*
X19368695Y14253482D01*
X19375778Y14217865D01*
X19444618Y14003193D01*
X19554015Y13806076D01*
X19699766Y13634088D01*
X19876270Y13493840D01*
X20076743Y13390721D01*
X20293482Y13328694D01*
X20473000Y13385316D01*
X20473000Y14433000D01*
X20527000Y14433000D01*
X20527000Y13385316D01*
X20706518Y13328694D01*
X20923257Y13390721D01*
X21123730Y13493840D01*
X21300234Y13634088D01*
X21445985Y13806076D01*
X21555382Y14003193D01*
X21624222Y14217865D01*
X21631305Y14253482D01*
X21574661Y14433000D01*
X20527000Y14433000D01*
X20473000Y14433000D01*
X19425339Y14433000D01*
X19368695Y14253482D01*
X15550000Y14253482D01*
X15550000Y14666518D01*
X19368695Y14666518D01*
X19425339Y14487000D01*
X20473000Y14487000D01*
X20473000Y15534684D01*
X20527000Y15534684D01*
X20527000Y14487000D01*
X21574661Y14487000D01*
X21631305Y14666518D01*
X21624222Y14702135D01*
X21555382Y14916807D01*
X21445985Y15113924D01*
X21300234Y15285912D01*
X21123730Y15426160D01*
X20923257Y15529279D01*
X20706518Y15591306D01*
X20527000Y15534684D01*
X20473000Y15534684D01*
X20293482Y15591306D01*
X20076743Y15529279D01*
X19876270Y15426160D01*
X19699766Y15285912D01*
X19554015Y15113924D01*
X19444618Y14916807D01*
X19375778Y14702135D01*
X19368695Y14666518D01*
X15550000Y14666518D01*
X15550000Y16726138D01*
X15527572Y16953853D01*
X15438941Y17246029D01*
X15295013Y17515300D01*
X15101318Y17751318D01*
X14981074Y17850000D01*
X19348549Y17850000D01*
X19348549Y16150000D01*
X19354341Y16091190D01*
X19371496Y16034640D01*
X19399353Y15982523D01*
X19436842Y15936842D01*
X19482523Y15899353D01*
X19534640Y15871496D01*
X19591190Y15854341D01*
X19650000Y15848549D01*
X21350000Y15848549D01*
X21408810Y15854341D01*
X21465360Y15871496D01*
X21517477Y15899353D01*
X21563158Y15936842D01*
X21600647Y15982523D01*
X21628504Y16034640D01*
X21645659Y16091190D01*
X21651451Y16150000D01*
X21651451Y16481629D01*
X54999812Y16481629D01*
X55120347Y16285909D01*
X55365150Y16148562D01*
X55632044Y16061614D01*
X55910773Y16028404D01*
X56190625Y16050209D01*
X56460846Y16126192D01*
X56711050Y16253433D01*
X56759653Y16285909D01*
X56880188Y16481629D01*
X60079812Y16481629D01*
X60200347Y16285909D01*
X60445150Y16148562D01*
X60712044Y16061614D01*
X60990773Y16028404D01*
X61270625Y16050209D01*
X61540846Y16126192D01*
X61791050Y16253433D01*
X61839653Y16285909D01*
X61960188Y16481629D01*
X61020000Y17421816D01*
X60079812Y16481629D01*
X56880188Y16481629D01*
X55940000Y17421816D01*
X54999812Y16481629D01*
X21651451Y16481629D01*
X21651451Y17489227D01*
X54508404Y17489227D01*
X54530209Y17209375D01*
X54606192Y16939154D01*
X54733433Y16688950D01*
X54765909Y16640347D01*
X54961629Y16519812D01*
X55901816Y17460000D01*
X54961629Y18400188D01*
X54765909Y18279653D01*
X54628562Y18034850D01*
X54541614Y17767956D01*
X54508404Y17489227D01*
X21651451Y17489227D01*
X21651451Y17850000D01*
X21645659Y17908810D01*
X21628504Y17965360D01*
X21600647Y18017477D01*
X21563158Y18063158D01*
X21517477Y18100647D01*
X21465360Y18128504D01*
X21408810Y18145659D01*
X21350000Y18151451D01*
X19650000Y18151451D01*
X19591190Y18145659D01*
X19534640Y18128504D01*
X19482523Y18100647D01*
X19436842Y18063158D01*
X19399353Y18017477D01*
X19371496Y17965360D01*
X19354341Y17908810D01*
X19348549Y17850000D01*
X14981074Y17850000D01*
X14865300Y17945013D01*
X14596029Y18088941D01*
X14303853Y18177572D01*
X14000000Y18207499D01*
X13696148Y18177572D01*
X13403972Y18088941D01*
X13134701Y17945013D01*
X12898683Y17751318D01*
X12704988Y17515300D01*
X12561060Y17246029D01*
X12472429Y16953853D01*
X12450001Y16726138D01*
X12450000Y14073863D01*
X9404511Y14073863D01*
X9425000Y14248000D01*
X9425000Y15373000D01*
X8027000Y15373000D01*
X7973000Y15373000D01*
X6575000Y15373000D01*
X325000Y15373000D01*
X325000Y16552000D01*
X6575000Y16552000D01*
X6575000Y15427000D01*
X7973000Y15427000D01*
X7973000Y17874730D01*
X8027000Y17874730D01*
X8027000Y15427000D01*
X9425000Y15427000D01*
X9425000Y16552000D01*
X9392352Y16829485D01*
X9306196Y17095269D01*
X9169844Y17339138D01*
X8988535Y17551720D01*
X8769237Y17724845D01*
X8520378Y17851861D01*
X8251521Y17927886D01*
X8249547Y17927979D01*
X8027000Y17874730D01*
X7973000Y17874730D01*
X7750453Y17927979D01*
X7748479Y17927886D01*
X7479622Y17851861D01*
X7230763Y17724845D01*
X7011465Y17551720D01*
X6830156Y17339138D01*
X6693804Y17095269D01*
X6607648Y16829485D01*
X6575000Y16552000D01*
X325000Y16552000D01*
X325000Y21561629D01*
X54999812Y21561629D01*
X55120347Y21365909D01*
X55365150Y21228562D01*
X55632044Y21141614D01*
X55910773Y21108404D01*
X56190625Y21130209D01*
X56460846Y21206192D01*
X56686719Y21321059D01*
X56508230Y21053933D01*
X56340505Y20649009D01*
X56255000Y20219143D01*
X56255000Y19780857D01*
X56340505Y19350991D01*
X56508230Y18946067D01*
X56690919Y18672654D01*
X56514850Y18771438D01*
X56247956Y18858386D01*
X55969227Y18891596D01*
X55689375Y18869791D01*
X55419154Y18793808D01*
X55168950Y18666567D01*
X55120347Y18634091D01*
X54999812Y18438371D01*
X55940000Y17498184D01*
X55954142Y17512326D01*
X55992326Y17474142D01*
X55978184Y17460000D01*
X56918371Y16519812D01*
X57114091Y16640347D01*
X57251438Y16885150D01*
X57338386Y17152044D01*
X57371596Y17430773D01*
X57349791Y17710625D01*
X57273808Y17980846D01*
X57158941Y18206719D01*
X57426067Y18028230D01*
X57830991Y17860505D01*
X58260857Y17775000D01*
X58699143Y17775000D01*
X59129009Y17860505D01*
X59533933Y18028230D01*
X59807346Y18210919D01*
X59708562Y18034850D01*
X59621614Y17767956D01*
X59588404Y17489227D01*
X59610209Y17209375D01*
X59686192Y16939154D01*
X59813433Y16688950D01*
X59845909Y16640347D01*
X60041629Y16519812D01*
X60981816Y17460000D01*
X61058184Y17460000D01*
X61998371Y16519812D01*
X62194091Y16640347D01*
X62331438Y16885150D01*
X62418386Y17152044D01*
X62451596Y17430773D01*
X62429791Y17710625D01*
X62353808Y17980846D01*
X62226567Y18231050D01*
X62194091Y18279653D01*
X61998371Y18400188D01*
X61058184Y17460000D01*
X60981816Y17460000D01*
X60967674Y17474142D01*
X61005858Y17512326D01*
X61020000Y17498184D01*
X61960188Y18438371D01*
X61839653Y18634091D01*
X61594850Y18771438D01*
X61327956Y18858386D01*
X61049227Y18891596D01*
X60769375Y18869791D01*
X60499154Y18793808D01*
X60273281Y18678941D01*
X60451770Y18946067D01*
X60619495Y19350991D01*
X60705000Y19780857D01*
X60705000Y20219143D01*
X60619495Y20649009D01*
X60451770Y21053933D01*
X60269081Y21327346D01*
X60445150Y21228562D01*
X60712044Y21141614D01*
X60990773Y21108404D01*
X61270625Y21130209D01*
X61540846Y21206192D01*
X61791050Y21333433D01*
X61839653Y21365909D01*
X61960188Y21561629D01*
X61020000Y22501816D01*
X61005858Y22487674D01*
X60967674Y22525858D01*
X60981816Y22540000D01*
X61058184Y22540000D01*
X61998371Y21599812D01*
X62194091Y21720347D01*
X62331438Y21965150D01*
X62418386Y22232044D01*
X62451596Y22510773D01*
X62429791Y22790625D01*
X62353808Y23060846D01*
X62226567Y23311050D01*
X62194091Y23359653D01*
X61998371Y23480188D01*
X61058184Y22540000D01*
X60981816Y22540000D01*
X60041629Y23480188D01*
X59845909Y23359653D01*
X59708562Y23114850D01*
X59621614Y22847956D01*
X59588404Y22569227D01*
X59610209Y22289375D01*
X59686192Y22019154D01*
X59801059Y21793281D01*
X59533933Y21971770D01*
X59129009Y22139495D01*
X58699143Y22225000D01*
X58260857Y22225000D01*
X57830991Y22139495D01*
X57426067Y21971770D01*
X57152654Y21789081D01*
X57251438Y21965150D01*
X57338386Y22232044D01*
X57371596Y22510773D01*
X57349791Y22790625D01*
X57273808Y23060846D01*
X57146567Y23311050D01*
X57114091Y23359653D01*
X56918371Y23480188D01*
X55978184Y22540000D01*
X55992326Y22525858D01*
X55954142Y22487674D01*
X55940000Y22501816D01*
X54999812Y21561629D01*
X325000Y21561629D01*
X325000Y22569227D01*
X54508404Y22569227D01*
X54530209Y22289375D01*
X54606192Y22019154D01*
X54733433Y21768950D01*
X54765909Y21720347D01*
X54961629Y21599812D01*
X55901816Y22540000D01*
X54961629Y23480188D01*
X54765909Y23359653D01*
X54628562Y23114850D01*
X54541614Y22847956D01*
X54508404Y22569227D01*
X325000Y22569227D01*
X325000Y23518371D01*
X54999812Y23518371D01*
X55940000Y22578184D01*
X56880188Y23518371D01*
X60079812Y23518371D01*
X61020000Y22578184D01*
X61960188Y23518371D01*
X61839653Y23714091D01*
X61594850Y23851438D01*
X61327956Y23938386D01*
X61049227Y23971596D01*
X60769375Y23949791D01*
X60499154Y23873808D01*
X60248950Y23746567D01*
X60200347Y23714091D01*
X60079812Y23518371D01*
X56880188Y23518371D01*
X56759653Y23714091D01*
X56514850Y23851438D01*
X56247956Y23938386D01*
X55969227Y23971596D01*
X55689375Y23949791D01*
X55419154Y23873808D01*
X55168950Y23746567D01*
X55120347Y23714091D01*
X54999812Y23518371D01*
X325000Y23518371D01*
X325000Y31481629D01*
X54999812Y31481629D01*
X55120347Y31285909D01*
X55365150Y31148562D01*
X55632044Y31061614D01*
X55910773Y31028404D01*
X56190625Y31050209D01*
X56460846Y31126192D01*
X56711050Y31253433D01*
X56759653Y31285909D01*
X56880188Y31481629D01*
X60079812Y31481629D01*
X60200347Y31285909D01*
X60445150Y31148562D01*
X60712044Y31061614D01*
X60990773Y31028404D01*
X61270625Y31050209D01*
X61540846Y31126192D01*
X61791050Y31253433D01*
X61839653Y31285909D01*
X61960188Y31481629D01*
X61020000Y32421816D01*
X60079812Y31481629D01*
X56880188Y31481629D01*
X55940000Y32421816D01*
X54999812Y31481629D01*
X325000Y31481629D01*
X325000Y32489227D01*
X54508404Y32489227D01*
X54530209Y32209375D01*
X54606192Y31939154D01*
X54733433Y31688950D01*
X54765909Y31640347D01*
X54961629Y31519812D01*
X55901816Y32460000D01*
X54961629Y33400188D01*
X54765909Y33279653D01*
X54628562Y33034850D01*
X54541614Y32767956D01*
X54508404Y32489227D01*
X325000Y32489227D01*
X325000Y34318944D01*
X14050000Y34318944D01*
X14050000Y34181056D01*
X14076901Y34045818D01*
X14129668Y33918426D01*
X14206274Y33803776D01*
X14303776Y33706274D01*
X14418426Y33629668D01*
X14545818Y33576901D01*
X14681056Y33550000D01*
X14818944Y33550000D01*
X14954182Y33576901D01*
X15081574Y33629668D01*
X15196224Y33706274D01*
X15293726Y33803776D01*
X15370332Y33918426D01*
X15423099Y34045818D01*
X15448995Y34176005D01*
X15579182Y34201901D01*
X15706574Y34254668D01*
X15821224Y34331274D01*
X15918726Y34428776D01*
X15995332Y34543426D01*
X16048099Y34670818D01*
X16073995Y34801005D01*
X16204182Y34826901D01*
X16331574Y34879668D01*
X16446224Y34956274D01*
X16543726Y35053776D01*
X16620332Y35168426D01*
X16673099Y35295818D01*
X16700000Y35431056D01*
X16700000Y35568944D01*
X16673099Y35704182D01*
X16620332Y35831574D01*
X16543726Y35946224D01*
X16446224Y36043726D01*
X16331574Y36120332D01*
X16204182Y36173099D01*
X16068944Y36200000D01*
X15931056Y36200000D01*
X15795818Y36173099D01*
X15668426Y36120332D01*
X15553776Y36043726D01*
X15456274Y35946224D01*
X15379668Y35831574D01*
X15326901Y35704182D01*
X15301005Y35573995D01*
X15170818Y35548099D01*
X15043426Y35495332D01*
X14928776Y35418726D01*
X14831274Y35321224D01*
X14754668Y35206574D01*
X14701901Y35079182D01*
X14676005Y34948995D01*
X14545818Y34923099D01*
X14418426Y34870332D01*
X14303776Y34793726D01*
X14206274Y34696224D01*
X14129668Y34581574D01*
X14076901Y34454182D01*
X14050000Y34318944D01*
X325000Y34318944D01*
X325000Y36561629D01*
X54999812Y36561629D01*
X55120347Y36365909D01*
X55365150Y36228562D01*
X55632044Y36141614D01*
X55910773Y36108404D01*
X56190625Y36130209D01*
X56460846Y36206192D01*
X56686719Y36321059D01*
X56508230Y36053933D01*
X56340505Y35649009D01*
X56255000Y35219143D01*
X56255000Y34780857D01*
X56340505Y34350991D01*
X56508230Y33946067D01*
X56690919Y33672654D01*
X56514850Y33771438D01*
X56247956Y33858386D01*
X55969227Y33891596D01*
X55689375Y33869791D01*
X55419154Y33793808D01*
X55168950Y33666567D01*
X55120347Y33634091D01*
X54999812Y33438371D01*
X55940000Y32498184D01*
X55954142Y32512326D01*
X55992326Y32474142D01*
X55978184Y32460000D01*
X56918371Y31519812D01*
X57114091Y31640347D01*
X57251438Y31885150D01*
X57338386Y32152044D01*
X57371596Y32430773D01*
X57349791Y32710625D01*
X57273808Y32980846D01*
X57158941Y33206719D01*
X57426067Y33028230D01*
X57830991Y32860505D01*
X58260857Y32775000D01*
X58699143Y32775000D01*
X59129009Y32860505D01*
X59533933Y33028230D01*
X59807346Y33210919D01*
X59708562Y33034850D01*
X59621614Y32767956D01*
X59588404Y32489227D01*
X59610209Y32209375D01*
X59686192Y31939154D01*
X59813433Y31688950D01*
X59845909Y31640347D01*
X60041629Y31519812D01*
X60981816Y32460000D01*
X61058184Y32460000D01*
X61998371Y31519812D01*
X62194091Y31640347D01*
X62331438Y31885150D01*
X62418386Y32152044D01*
X62451596Y32430773D01*
X62429791Y32710625D01*
X62353808Y32980846D01*
X62226567Y33231050D01*
X62194091Y33279653D01*
X61998371Y33400188D01*
X61058184Y32460000D01*
X60981816Y32460000D01*
X60967674Y32474142D01*
X61005858Y32512326D01*
X61020000Y32498184D01*
X61960188Y33438371D01*
X61839653Y33634091D01*
X61594850Y33771438D01*
X61327956Y33858386D01*
X61049227Y33891596D01*
X60769375Y33869791D01*
X60499154Y33793808D01*
X60273281Y33678941D01*
X60451770Y33946067D01*
X60619495Y34350991D01*
X60705000Y34780857D01*
X60705000Y35219143D01*
X60619495Y35649009D01*
X60451770Y36053933D01*
X60269081Y36327346D01*
X60445150Y36228562D01*
X60712044Y36141614D01*
X60990773Y36108404D01*
X61270625Y36130209D01*
X61540846Y36206192D01*
X61791050Y36333433D01*
X61839653Y36365909D01*
X61960188Y36561629D01*
X61020000Y37501816D01*
X61005858Y37487674D01*
X60967674Y37525858D01*
X60981816Y37540000D01*
X61058184Y37540000D01*
X61998371Y36599812D01*
X62194091Y36720347D01*
X62331438Y36965150D01*
X62418386Y37232044D01*
X62451596Y37510773D01*
X62429791Y37790625D01*
X62353808Y38060846D01*
X62226567Y38311050D01*
X62194091Y38359653D01*
X61998371Y38480188D01*
X61058184Y37540000D01*
X60981816Y37540000D01*
X60041629Y38480188D01*
X59845909Y38359653D01*
X59708562Y38114850D01*
X59621614Y37847956D01*
X59588404Y37569227D01*
X59610209Y37289375D01*
X59686192Y37019154D01*
X59801059Y36793281D01*
X59533933Y36971770D01*
X59129009Y37139495D01*
X58699143Y37225000D01*
X58260857Y37225000D01*
X57830991Y37139495D01*
X57426067Y36971770D01*
X57152654Y36789081D01*
X57251438Y36965150D01*
X57338386Y37232044D01*
X57371596Y37510773D01*
X57349791Y37790625D01*
X57273808Y38060846D01*
X57146567Y38311050D01*
X57114091Y38359653D01*
X56918371Y38480188D01*
X55978184Y37540000D01*
X55992326Y37525858D01*
X55954142Y37487674D01*
X55940000Y37501816D01*
X54999812Y36561629D01*
X325000Y36561629D01*
X325000Y37569227D01*
X54508404Y37569227D01*
X54530209Y37289375D01*
X54606192Y37019154D01*
X54733433Y36768950D01*
X54765909Y36720347D01*
X54961629Y36599812D01*
X55901816Y37540000D01*
X54961629Y38480188D01*
X54765909Y38359653D01*
X54628562Y38114850D01*
X54541614Y37847956D01*
X54508404Y37569227D01*
X325000Y37569227D01*
X325000Y38518371D01*
X54999812Y38518371D01*
X55940000Y37578184D01*
X56880188Y38518371D01*
X60079812Y38518371D01*
X61020000Y37578184D01*
X61960188Y38518371D01*
X61839653Y38714091D01*
X61594850Y38851438D01*
X61327956Y38938386D01*
X61049227Y38971596D01*
X60769375Y38949791D01*
X60499154Y38873808D01*
X60248950Y38746567D01*
X60200347Y38714091D01*
X60079812Y38518371D01*
X56880188Y38518371D01*
X56759653Y38714091D01*
X56514850Y38851438D01*
X56247956Y38938386D01*
X55969227Y38971596D01*
X55689375Y38949791D01*
X55419154Y38873808D01*
X55168950Y38746567D01*
X55120347Y38714091D01*
X54999812Y38518371D01*
X325000Y38518371D01*
X325000Y41968944D01*
X21600000Y41968944D01*
X21600000Y41831056D01*
X21626901Y41695818D01*
X21679668Y41568426D01*
X21756274Y41453776D01*
X21853776Y41356274D01*
X21968426Y41279668D01*
X22095818Y41226901D01*
X22231056Y41200000D01*
X22368944Y41200000D01*
X22504182Y41226901D01*
X22631574Y41279668D01*
X22746224Y41356274D01*
X22781500Y41391550D01*
X22785276Y41387774D01*
X22899926Y41311168D01*
X23027318Y41258401D01*
X23162556Y41231500D01*
X23300444Y41231500D01*
X23435682Y41258401D01*
X23563074Y41311168D01*
X23677724Y41387774D01*
X23681500Y41391550D01*
X23685276Y41387774D01*
X23799926Y41311168D01*
X23927318Y41258401D01*
X24062556Y41231500D01*
X24200444Y41231500D01*
X24335682Y41258401D01*
X24463074Y41311168D01*
X24577724Y41387774D01*
X24675226Y41485276D01*
X24751832Y41599926D01*
X24804599Y41727318D01*
X24831500Y41862556D01*
X24831500Y42000444D01*
X24804599Y42135682D01*
X24751832Y42263074D01*
X24675226Y42377724D01*
X24577724Y42475226D01*
X24463074Y42551832D01*
X24335682Y42604599D01*
X24200444Y42631500D01*
X24062556Y42631500D01*
X23927318Y42604599D01*
X23799926Y42551832D01*
X23685276Y42475226D01*
X23681500Y42471450D01*
X23677724Y42475226D01*
X23563074Y42551832D01*
X23435682Y42604599D01*
X23300444Y42631500D01*
X23162556Y42631500D01*
X23027318Y42604599D01*
X22899926Y42551832D01*
X22785276Y42475226D01*
X22750000Y42439950D01*
X22746224Y42443726D01*
X22631574Y42520332D01*
X22504182Y42573099D01*
X22368944Y42600000D01*
X22231056Y42600000D01*
X22095818Y42573099D01*
X21968426Y42520332D01*
X21853776Y42443726D01*
X21756274Y42346224D01*
X21679668Y42231574D01*
X21626901Y42104182D01*
X21600000Y41968944D01*
X325000Y41968944D01*
X325000Y46481629D01*
X54999812Y46481629D01*
X55120347Y46285909D01*
X55365150Y46148562D01*
X55632044Y46061614D01*
X55910773Y46028404D01*
X56190625Y46050209D01*
X56460846Y46126192D01*
X56711050Y46253433D01*
X56759653Y46285909D01*
X56880188Y46481629D01*
X60079812Y46481629D01*
X60200347Y46285909D01*
X60445150Y46148562D01*
X60712044Y46061614D01*
X60990773Y46028404D01*
X61270625Y46050209D01*
X61540846Y46126192D01*
X61791050Y46253433D01*
X61839653Y46285909D01*
X61960188Y46481629D01*
X61020000Y47421816D01*
X60079812Y46481629D01*
X56880188Y46481629D01*
X55940000Y47421816D01*
X54999812Y46481629D01*
X325000Y46481629D01*
X325000Y47489227D01*
X54508404Y47489227D01*
X54530209Y47209375D01*
X54606192Y46939154D01*
X54733433Y46688950D01*
X54765909Y46640347D01*
X54961629Y46519812D01*
X55901816Y47460000D01*
X54961629Y48400188D01*
X54765909Y48279653D01*
X54628562Y48034850D01*
X54541614Y47767956D01*
X54508404Y47489227D01*
X325000Y47489227D01*
X325000Y49637944D01*
X16969000Y49637944D01*
X16969000Y49500056D01*
X16995901Y49364818D01*
X17048668Y49237426D01*
X17125274Y49122776D01*
X17222776Y49025274D01*
X17337426Y48948668D01*
X17464818Y48895901D01*
X17600056Y48869000D01*
X17737944Y48869000D01*
X17873182Y48895901D01*
X18000574Y48948668D01*
X18115224Y49025274D01*
X18212726Y49122776D01*
X18289332Y49237426D01*
X18342099Y49364818D01*
X18369000Y49500056D01*
X18369000Y49637944D01*
X18342099Y49773182D01*
X18289332Y49900574D01*
X18248755Y49961302D01*
X18320332Y50068426D01*
X18373099Y50195818D01*
X18400000Y50331056D01*
X18400000Y50468944D01*
X18373099Y50604182D01*
X18320332Y50731574D01*
X18243726Y50846224D01*
X18146224Y50943726D01*
X18031574Y51020332D01*
X17904182Y51073099D01*
X17768944Y51100000D01*
X17631056Y51100000D01*
X17495818Y51073099D01*
X17368426Y51020332D01*
X17253776Y50943726D01*
X17156274Y50846224D01*
X17079668Y50731574D01*
X17026901Y50604182D01*
X17000000Y50468944D01*
X17000000Y50331056D01*
X17026901Y50195818D01*
X17079668Y50068426D01*
X17120245Y50007698D01*
X17048668Y49900574D01*
X16995901Y49773182D01*
X16969000Y49637944D01*
X325000Y49637944D01*
X325000Y51561629D01*
X54999812Y51561629D01*
X55120347Y51365909D01*
X55365150Y51228562D01*
X55632044Y51141614D01*
X55910773Y51108404D01*
X56190625Y51130209D01*
X56460846Y51206192D01*
X56686719Y51321059D01*
X56508230Y51053933D01*
X56340505Y50649009D01*
X56255000Y50219143D01*
X56255000Y49780857D01*
X56340505Y49350991D01*
X56508230Y48946067D01*
X56690919Y48672654D01*
X56514850Y48771438D01*
X56247956Y48858386D01*
X55969227Y48891596D01*
X55689375Y48869791D01*
X55419154Y48793808D01*
X55168950Y48666567D01*
X55120347Y48634091D01*
X54999812Y48438371D01*
X55940000Y47498184D01*
X55954142Y47512326D01*
X55992326Y47474142D01*
X55978184Y47460000D01*
X56918371Y46519812D01*
X57114091Y46640347D01*
X57251438Y46885150D01*
X57338386Y47152044D01*
X57371596Y47430773D01*
X57349791Y47710625D01*
X57273808Y47980846D01*
X57158941Y48206719D01*
X57426067Y48028230D01*
X57830991Y47860505D01*
X58260857Y47775000D01*
X58699143Y47775000D01*
X59129009Y47860505D01*
X59533933Y48028230D01*
X59807346Y48210919D01*
X59708562Y48034850D01*
X59621614Y47767956D01*
X59588404Y47489227D01*
X59610209Y47209375D01*
X59686192Y46939154D01*
X59813433Y46688950D01*
X59845909Y46640347D01*
X60041629Y46519812D01*
X60981816Y47460000D01*
X61058184Y47460000D01*
X61998371Y46519812D01*
X62194091Y46640347D01*
X62331438Y46885150D01*
X62418386Y47152044D01*
X62451596Y47430773D01*
X62429791Y47710625D01*
X62353808Y47980846D01*
X62226567Y48231050D01*
X62194091Y48279653D01*
X61998371Y48400188D01*
X61058184Y47460000D01*
X60981816Y47460000D01*
X60967674Y47474142D01*
X61005858Y47512326D01*
X61020000Y47498184D01*
X61960188Y48438371D01*
X61839653Y48634091D01*
X61594850Y48771438D01*
X61327956Y48858386D01*
X61049227Y48891596D01*
X60769375Y48869791D01*
X60499154Y48793808D01*
X60273281Y48678941D01*
X60451770Y48946067D01*
X60619495Y49350991D01*
X60705000Y49780857D01*
X60705000Y50219143D01*
X60619495Y50649009D01*
X60451770Y51053933D01*
X60269081Y51327346D01*
X60445150Y51228562D01*
X60712044Y51141614D01*
X60990773Y51108404D01*
X61270625Y51130209D01*
X61540846Y51206192D01*
X61791050Y51333433D01*
X61839653Y51365909D01*
X61960188Y51561629D01*
X61020000Y52501816D01*
X61005858Y52487674D01*
X60967674Y52525858D01*
X60981816Y52540000D01*
X61058184Y52540000D01*
X61998371Y51599812D01*
X62194091Y51720347D01*
X62331438Y51965150D01*
X62418386Y52232044D01*
X62451596Y52510773D01*
X62429791Y52790625D01*
X62353808Y53060846D01*
X62226567Y53311050D01*
X62194091Y53359653D01*
X61998371Y53480188D01*
X61058184Y52540000D01*
X60981816Y52540000D01*
X60041629Y53480188D01*
X59845909Y53359653D01*
X59708562Y53114850D01*
X59621614Y52847956D01*
X59588404Y52569227D01*
X59610209Y52289375D01*
X59686192Y52019154D01*
X59801059Y51793281D01*
X59533933Y51971770D01*
X59129009Y52139495D01*
X58699143Y52225000D01*
X58260857Y52225000D01*
X57830991Y52139495D01*
X57426067Y51971770D01*
X57152654Y51789081D01*
X57251438Y51965150D01*
X57338386Y52232044D01*
X57371596Y52510773D01*
X57349791Y52790625D01*
X57273808Y53060846D01*
X57146567Y53311050D01*
X57114091Y53359653D01*
X56918371Y53480188D01*
X55978184Y52540000D01*
X55992326Y52525858D01*
X55954142Y52487674D01*
X55940000Y52501816D01*
X54999812Y51561629D01*
X325000Y51561629D01*
X325000Y52569227D01*
X54508404Y52569227D01*
X54530209Y52289375D01*
X54606192Y52019154D01*
X54733433Y51768950D01*
X54765909Y51720347D01*
X54961629Y51599812D01*
X55901816Y52540000D01*
X54961629Y53480188D01*
X54765909Y53359653D01*
X54628562Y53114850D01*
X54541614Y52847956D01*
X54508404Y52569227D01*
X325000Y52569227D01*
X325000Y53518371D01*
X54999812Y53518371D01*
X55940000Y52578184D01*
X56880188Y53518371D01*
X60079812Y53518371D01*
X61020000Y52578184D01*
X61960188Y53518371D01*
X61839653Y53714091D01*
X61594850Y53851438D01*
X61327956Y53938386D01*
X61049227Y53971596D01*
X60769375Y53949791D01*
X60499154Y53873808D01*
X60248950Y53746567D01*
X60200347Y53714091D01*
X60079812Y53518371D01*
X56880188Y53518371D01*
X56759653Y53714091D01*
X56514850Y53851438D01*
X56247956Y53938386D01*
X55969227Y53971596D01*
X55689375Y53949791D01*
X55419154Y53873808D01*
X55168950Y53746567D01*
X55120347Y53714091D01*
X54999812Y53518371D01*
X325000Y53518371D01*
X325000Y61481629D01*
X54999812Y61481629D01*
X55120347Y61285909D01*
X55365150Y61148562D01*
X55632044Y61061614D01*
X55910773Y61028404D01*
X56190625Y61050209D01*
X56460846Y61126192D01*
X56711050Y61253433D01*
X56759653Y61285909D01*
X56880188Y61481629D01*
X60079812Y61481629D01*
X60200347Y61285909D01*
X60445150Y61148562D01*
X60712044Y61061614D01*
X60990773Y61028404D01*
X61270625Y61050209D01*
X61540846Y61126192D01*
X61791050Y61253433D01*
X61839653Y61285909D01*
X61960188Y61481629D01*
X61020000Y62421816D01*
X60079812Y61481629D01*
X56880188Y61481629D01*
X55940000Y62421816D01*
X54999812Y61481629D01*
X325000Y61481629D01*
X325000Y62489227D01*
X54508404Y62489227D01*
X54530209Y62209375D01*
X54606192Y61939154D01*
X54733433Y61688950D01*
X54765909Y61640347D01*
X54961629Y61519812D01*
X55901816Y62460000D01*
X54961629Y63400188D01*
X54765909Y63279653D01*
X54628562Y63034850D01*
X54541614Y62767956D01*
X54508404Y62489227D01*
X325000Y62489227D01*
X325000Y66561629D01*
X54999812Y66561629D01*
X55120347Y66365909D01*
X55365150Y66228562D01*
X55632044Y66141614D01*
X55910773Y66108404D01*
X56190625Y66130209D01*
X56460846Y66206192D01*
X56686719Y66321059D01*
X56508230Y66053933D01*
X56340505Y65649009D01*
X56255000Y65219143D01*
X56255000Y64780857D01*
X56340505Y64350991D01*
X56508230Y63946067D01*
X56690919Y63672654D01*
X56514850Y63771438D01*
X56247956Y63858386D01*
X55969227Y63891596D01*
X55689375Y63869791D01*
X55419154Y63793808D01*
X55168950Y63666567D01*
X55120347Y63634091D01*
X54999812Y63438371D01*
X55940000Y62498184D01*
X55954142Y62512326D01*
X55992326Y62474142D01*
X55978184Y62460000D01*
X56918371Y61519812D01*
X57114091Y61640347D01*
X57251438Y61885150D01*
X57338386Y62152044D01*
X57371596Y62430773D01*
X57349791Y62710625D01*
X57273808Y62980846D01*
X57158941Y63206719D01*
X57426067Y63028230D01*
X57830991Y62860505D01*
X58260857Y62775000D01*
X58699143Y62775000D01*
X59129009Y62860505D01*
X59533933Y63028230D01*
X59807346Y63210919D01*
X59708562Y63034850D01*
X59621614Y62767956D01*
X59588404Y62489227D01*
X59610209Y62209375D01*
X59686192Y61939154D01*
X59813433Y61688950D01*
X59845909Y61640347D01*
X60041629Y61519812D01*
X60981816Y62460000D01*
X61058184Y62460000D01*
X61998371Y61519812D01*
X62194091Y61640347D01*
X62331438Y61885150D01*
X62418386Y62152044D01*
X62451596Y62430773D01*
X62429791Y62710625D01*
X62353808Y62980846D01*
X62226567Y63231050D01*
X62194091Y63279653D01*
X61998371Y63400188D01*
X61058184Y62460000D01*
X60981816Y62460000D01*
X60967674Y62474142D01*
X61005858Y62512326D01*
X61020000Y62498184D01*
X61960188Y63438371D01*
X61839653Y63634091D01*
X61594850Y63771438D01*
X61327956Y63858386D01*
X61049227Y63891596D01*
X60769375Y63869791D01*
X60499154Y63793808D01*
X60273281Y63678941D01*
X60451770Y63946067D01*
X60619495Y64350991D01*
X60705000Y64780857D01*
X60705000Y65219143D01*
X60619495Y65649009D01*
X60451770Y66053933D01*
X60269081Y66327346D01*
X60445150Y66228562D01*
X60712044Y66141614D01*
X60990773Y66108404D01*
X61270625Y66130209D01*
X61540846Y66206192D01*
X61791050Y66333433D01*
X61839653Y66365909D01*
X61960188Y66561629D01*
X61020000Y67501816D01*
X61005858Y67487674D01*
X60967674Y67525858D01*
X60981816Y67540000D01*
X61058184Y67540000D01*
X61998371Y66599812D01*
X62194091Y66720347D01*
X62331438Y66965150D01*
X62418386Y67232044D01*
X62451596Y67510773D01*
X62429791Y67790625D01*
X62353808Y68060846D01*
X62226567Y68311050D01*
X62194091Y68359653D01*
X61998371Y68480188D01*
X61058184Y67540000D01*
X60981816Y67540000D01*
X60041629Y68480188D01*
X59845909Y68359653D01*
X59708562Y68114850D01*
X59621614Y67847956D01*
X59588404Y67569227D01*
X59610209Y67289375D01*
X59686192Y67019154D01*
X59801059Y66793281D01*
X59533933Y66971770D01*
X59129009Y67139495D01*
X58699143Y67225000D01*
X58260857Y67225000D01*
X57830991Y67139495D01*
X57426067Y66971770D01*
X57152654Y66789081D01*
X57251438Y66965150D01*
X57338386Y67232044D01*
X57371596Y67510773D01*
X57349791Y67790625D01*
X57273808Y68060846D01*
X57146567Y68311050D01*
X57114091Y68359653D01*
X56918371Y68480188D01*
X55978184Y67540000D01*
X55992326Y67525858D01*
X55954142Y67487674D01*
X55940000Y67501816D01*
X54999812Y66561629D01*
X325000Y66561629D01*
X325000Y67569227D01*
X54508404Y67569227D01*
X54530209Y67289375D01*
X54606192Y67019154D01*
X54733433Y66768950D01*
X54765909Y66720347D01*
X54961629Y66599812D01*
X55901816Y67540000D01*
X54961629Y68480188D01*
X54765909Y68359653D01*
X54628562Y68114850D01*
X54541614Y67847956D01*
X54508404Y67569227D01*
X325000Y67569227D01*
X325000Y68518371D01*
X54999812Y68518371D01*
X55940000Y67578184D01*
X56880188Y68518371D01*
X60079812Y68518371D01*
X61020000Y67578184D01*
X61960188Y68518371D01*
X61839653Y68714091D01*
X61594850Y68851438D01*
X61327956Y68938386D01*
X61049227Y68971596D01*
X60769375Y68949791D01*
X60499154Y68873808D01*
X60248950Y68746567D01*
X60200347Y68714091D01*
X60079812Y68518371D01*
X56880188Y68518371D01*
X56759653Y68714091D01*
X56514850Y68851438D01*
X56247956Y68938386D01*
X55969227Y68971596D01*
X55689375Y68949791D01*
X55419154Y68873808D01*
X55168950Y68746567D01*
X55120347Y68714091D01*
X54999812Y68518371D01*
X325000Y68518371D01*
X325000Y76481629D01*
X54999812Y76481629D01*
X55120347Y76285909D01*
X55365150Y76148562D01*
X55632044Y76061614D01*
X55910773Y76028404D01*
X56190625Y76050209D01*
X56460846Y76126192D01*
X56711050Y76253433D01*
X56759653Y76285909D01*
X56880188Y76481629D01*
X60079812Y76481629D01*
X60200347Y76285909D01*
X60445150Y76148562D01*
X60712044Y76061614D01*
X60990773Y76028404D01*
X61270625Y76050209D01*
X61540846Y76126192D01*
X61791050Y76253433D01*
X61839653Y76285909D01*
X61960188Y76481629D01*
X61020000Y77421816D01*
X60079812Y76481629D01*
X56880188Y76481629D01*
X55940000Y77421816D01*
X54999812Y76481629D01*
X325000Y76481629D01*
X325000Y77489227D01*
X54508404Y77489227D01*
X54530209Y77209375D01*
X54606192Y76939154D01*
X54733433Y76688950D01*
X54765909Y76640347D01*
X54961629Y76519812D01*
X55901816Y77460000D01*
X54961629Y78400188D01*
X54765909Y78279653D01*
X54628562Y78034850D01*
X54541614Y77767956D01*
X54508404Y77489227D01*
X325000Y77489227D01*
X325000Y81561629D01*
X54999812Y81561629D01*
X55120347Y81365909D01*
X55365150Y81228562D01*
X55632044Y81141614D01*
X55910773Y81108404D01*
X56190625Y81130209D01*
X56460846Y81206192D01*
X56686719Y81321059D01*
X56508230Y81053933D01*
X56340505Y80649009D01*
X56255000Y80219143D01*
X56255000Y79780857D01*
X56340505Y79350991D01*
X56508230Y78946067D01*
X56690919Y78672654D01*
X56514850Y78771438D01*
X56247956Y78858386D01*
X55969227Y78891596D01*
X55689375Y78869791D01*
X55419154Y78793808D01*
X55168950Y78666567D01*
X55120347Y78634091D01*
X54999812Y78438371D01*
X55940000Y77498184D01*
X55954142Y77512326D01*
X55992326Y77474142D01*
X55978184Y77460000D01*
X56918371Y76519812D01*
X57114091Y76640347D01*
X57251438Y76885150D01*
X57338386Y77152044D01*
X57371596Y77430773D01*
X57349791Y77710625D01*
X57273808Y77980846D01*
X57158941Y78206719D01*
X57426067Y78028230D01*
X57830991Y77860505D01*
X58260857Y77775000D01*
X58699143Y77775000D01*
X59129009Y77860505D01*
X59533933Y78028230D01*
X59807346Y78210919D01*
X59708562Y78034850D01*
X59621614Y77767956D01*
X59588404Y77489227D01*
X59610209Y77209375D01*
X59686192Y76939154D01*
X59813433Y76688950D01*
X59845909Y76640347D01*
X60041629Y76519812D01*
X60981816Y77460000D01*
X61058184Y77460000D01*
X61998371Y76519812D01*
X62194091Y76640347D01*
X62331438Y76885150D01*
X62418386Y77152044D01*
X62451596Y77430773D01*
X62429791Y77710625D01*
X62353808Y77980846D01*
X62226567Y78231050D01*
X62194091Y78279653D01*
X61998371Y78400188D01*
X61058184Y77460000D01*
X60981816Y77460000D01*
X60967674Y77474142D01*
X61005858Y77512326D01*
X61020000Y77498184D01*
X61960188Y78438371D01*
X61839653Y78634091D01*
X61594850Y78771438D01*
X61327956Y78858386D01*
X61049227Y78891596D01*
X60769375Y78869791D01*
X60499154Y78793808D01*
X60273281Y78678941D01*
X60451770Y78946067D01*
X60619495Y79350991D01*
X60705000Y79780857D01*
X60705000Y80219143D01*
X60619495Y80649009D01*
X60451770Y81053933D01*
X60269081Y81327346D01*
X60445150Y81228562D01*
X60712044Y81141614D01*
X60990773Y81108404D01*
X61270625Y81130209D01*
X61540846Y81206192D01*
X61791050Y81333433D01*
X61839653Y81365909D01*
X61960188Y81561629D01*
X61020000Y82501816D01*
X61005858Y82487674D01*
X60967674Y82525858D01*
X60981816Y82540000D01*
X61058184Y82540000D01*
X61998371Y81599812D01*
X62194091Y81720347D01*
X62331438Y81965150D01*
X62418386Y82232044D01*
X62451596Y82510773D01*
X62429791Y82790625D01*
X62353808Y83060846D01*
X62226567Y83311050D01*
X62194091Y83359653D01*
X61998371Y83480188D01*
X61058184Y82540000D01*
X60981816Y82540000D01*
X60041629Y83480188D01*
X59845909Y83359653D01*
X59708562Y83114850D01*
X59621614Y82847956D01*
X59588404Y82569227D01*
X59610209Y82289375D01*
X59686192Y82019154D01*
X59801059Y81793281D01*
X59533933Y81971770D01*
X59129009Y82139495D01*
X58699143Y82225000D01*
X58260857Y82225000D01*
X57830991Y82139495D01*
X57426067Y81971770D01*
X57152654Y81789081D01*
X57251438Y81965150D01*
X57338386Y82232044D01*
X57371596Y82510773D01*
X57349791Y82790625D01*
X57273808Y83060846D01*
X57146567Y83311050D01*
X57114091Y83359653D01*
X56918371Y83480188D01*
X55978184Y82540000D01*
X55992326Y82525858D01*
X55954142Y82487674D01*
X55940000Y82501816D01*
X54999812Y81561629D01*
X325000Y81561629D01*
X325000Y82569227D01*
X54508404Y82569227D01*
X54530209Y82289375D01*
X54606192Y82019154D01*
X54733433Y81768950D01*
X54765909Y81720347D01*
X54961629Y81599812D01*
X55901816Y82540000D01*
X54961629Y83480188D01*
X54765909Y83359653D01*
X54628562Y83114850D01*
X54541614Y82847956D01*
X54508404Y82569227D01*
X325000Y82569227D01*
X325000Y83518371D01*
X54999812Y83518371D01*
X55940000Y82578184D01*
X56880188Y83518371D01*
X60079812Y83518371D01*
X61020000Y82578184D01*
X61960188Y83518371D01*
X61839653Y83714091D01*
X61594850Y83851438D01*
X61327956Y83938386D01*
X61049227Y83971596D01*
X60769375Y83949791D01*
X60499154Y83873808D01*
X60248950Y83746567D01*
X60200347Y83714091D01*
X60079812Y83518371D01*
X56880188Y83518371D01*
X56759653Y83714091D01*
X56514850Y83851438D01*
X56247956Y83938386D01*
X55969227Y83971596D01*
X55689375Y83949791D01*
X55419154Y83873808D01*
X55168950Y83746567D01*
X55120347Y83714091D01*
X54999812Y83518371D01*
X325000Y83518371D01*
X325000Y91547167D01*
X3585351Y91547167D01*
X3954702Y91138954D01*
X4552164Y90794911D01*
X5205266Y90574037D01*
X5888909Y90484820D01*
X6576821Y90530691D01*
X7242566Y90709884D01*
X7860561Y91015516D01*
X8045298Y91138954D01*
X8414649Y91547167D01*
X55085351Y91547167D01*
X55454702Y91138954D01*
X56052164Y90794911D01*
X56705266Y90574037D01*
X57388909Y90484820D01*
X58076821Y90530691D01*
X58742566Y90709884D01*
X59360561Y91015516D01*
X59545298Y91138954D01*
X59914649Y91547167D01*
X59621891Y91839925D01*
X59621891Y91839926D01*
X59197056Y92264760D01*
X59021045Y92440771D01*
X58734038Y92727779D01*
X58734037Y92727779D01*
X57500000Y93961816D01*
X56265963Y92727779D01*
X56265962Y92727779D01*
X55978955Y92440771D01*
X55802944Y92264760D01*
X55378109Y91839926D01*
X55378109Y91839925D01*
X55085351Y91547167D01*
X8414649Y91547167D01*
X8121891Y91839925D01*
X8121891Y91839926D01*
X7697056Y92264760D01*
X7521045Y92440771D01*
X7234038Y92727779D01*
X7234037Y92727779D01*
X6000000Y93961816D01*
X4765963Y92727779D01*
X4765962Y92727779D01*
X4478955Y92440771D01*
X4302944Y92264760D01*
X3878109Y91839926D01*
X3878109Y91839925D01*
X3585351Y91547167D01*
X325000Y91547167D01*
X325000Y94111091D01*
X2484820Y94111091D01*
X2530691Y93423179D01*
X2709884Y92757434D01*
X3015516Y92139439D01*
X3138954Y91954702D01*
X3547167Y91585351D01*
X3839925Y91878109D01*
X3839926Y91878109D01*
X4264760Y92302944D01*
X4302944Y92341128D01*
X4727779Y92765962D01*
X4727779Y92765963D01*
X5961816Y94000000D01*
X6038184Y94000000D01*
X7272221Y92765963D01*
X7272221Y92765962D01*
X7697056Y92341128D01*
X7735240Y92302944D01*
X8160074Y91878109D01*
X8160075Y91878109D01*
X8452833Y91585351D01*
X8861046Y91954702D01*
X9205089Y92552164D01*
X9425963Y93205266D01*
X9515180Y93888909D01*
X9500365Y94111091D01*
X53984820Y94111091D01*
X54030691Y93423179D01*
X54209884Y92757434D01*
X54515516Y92139439D01*
X54638954Y91954702D01*
X55047167Y91585351D01*
X55339925Y91878109D01*
X55339926Y91878109D01*
X55764760Y92302944D01*
X55802944Y92341128D01*
X56227779Y92765962D01*
X56227779Y92765963D01*
X57461816Y94000000D01*
X57538184Y94000000D01*
X58772221Y92765963D01*
X58772221Y92765962D01*
X59197056Y92341128D01*
X59235240Y92302944D01*
X59660074Y91878109D01*
X59660075Y91878109D01*
X59952833Y91585351D01*
X60361046Y91954702D01*
X60705089Y92552164D01*
X60925963Y93205266D01*
X61015180Y93888909D01*
X60969309Y94576821D01*
X60790116Y95242566D01*
X60484484Y95860561D01*
X60361046Y96045298D01*
X59952833Y96414649D01*
X59660075Y96121891D01*
X59660074Y96121891D01*
X59398745Y95860561D01*
X59197056Y95658872D01*
X58772221Y95234038D01*
X58772221Y95234037D01*
X57538184Y94000000D01*
X57461816Y94000000D01*
X56227779Y95234037D01*
X56227779Y95234038D01*
X55802944Y95658872D01*
X55601255Y95860561D01*
X55339926Y96121891D01*
X55339925Y96121891D01*
X55047167Y96414649D01*
X54638954Y96045298D01*
X54294911Y95447836D01*
X54074037Y94794734D01*
X53984820Y94111091D01*
X9500365Y94111091D01*
X9469309Y94576821D01*
X9290116Y95242566D01*
X8984484Y95860561D01*
X8861046Y96045298D01*
X8452833Y96414649D01*
X8160075Y96121891D01*
X8160074Y96121891D01*
X7898745Y95860561D01*
X7697056Y95658872D01*
X7272221Y95234038D01*
X7272221Y95234037D01*
X6038184Y94000000D01*
X5961816Y94000000D01*
X4727779Y95234037D01*
X4727779Y95234038D01*
X4302944Y95658872D01*
X4101255Y95860561D01*
X3839926Y96121891D01*
X3839925Y96121891D01*
X3547167Y96414649D01*
X3138954Y96045298D01*
X2794911Y95447836D01*
X2574037Y94794734D01*
X2484820Y94111091D01*
X325000Y94111091D01*
X325000Y96452833D01*
X3585351Y96452833D01*
X3878109Y96160075D01*
X3878109Y96160074D01*
X4302944Y95735240D01*
X4341128Y95697056D01*
X4765962Y95272221D01*
X4765963Y95272221D01*
X6000000Y94038184D01*
X7234037Y95272221D01*
X7234038Y95272221D01*
X7658872Y95697056D01*
X7697056Y95735240D01*
X8121891Y96160074D01*
X8121891Y96160075D01*
X8414649Y96452833D01*
X55085351Y96452833D01*
X55378109Y96160075D01*
X55378109Y96160074D01*
X55802944Y95735240D01*
X55841128Y95697056D01*
X56265962Y95272221D01*
X56265963Y95272221D01*
X57500000Y94038184D01*
X58734037Y95272221D01*
X58734038Y95272221D01*
X59158872Y95697056D01*
X59197056Y95735240D01*
X59621891Y96160074D01*
X59621891Y96160075D01*
X59914649Y96452833D01*
X59545298Y96861046D01*
X58947836Y97205089D01*
X58294734Y97425963D01*
X57611091Y97515180D01*
X56923179Y97469309D01*
X56257434Y97290116D01*
X55639439Y96984484D01*
X55454702Y96861046D01*
X55085351Y96452833D01*
X8414649Y96452833D01*
X8045298Y96861046D01*
X7447836Y97205089D01*
X6794734Y97425963D01*
X6111091Y97515180D01*
X5423179Y97469309D01*
X4757434Y97290116D01*
X4139439Y96984484D01*
X3954702Y96861046D01*
X3585351Y96452833D01*
X325000Y96452833D01*
X325000Y99675000D01*
X63155001Y99675000D01*
X63155000Y325000D01*
G37*
G04 #@! TD.AperFunction*
G04 #@! TD*
M02*
