G04 #@! TF.GenerationSoftware,KiCad,Pcbnew,5.1.8-5.1.8*
G04 #@! TF.CreationDate,2020-12-23T15:54:33+01:00*
G04 #@! TF.ProjectId,distribution-amp,64697374-7269-4627-9574-696f6e2d616d,rev?*
G04 #@! TF.SameCoordinates,PX67aef80PY8a2ffa0*
G04 #@! TF.FileFunction,Soldermask,Bot*
G04 #@! TF.FilePolarity,Negative*
%FSLAX46Y46*%
G04 Gerber Fmt 4.6, Leading zero omitted, Abs format (unit mm)*
G04 Created by KiCad (PCBNEW 5.1.8-5.1.8) date 2020-12-23 15:54:33*
%MOMM*%
%LPD*%
G01*
G04 APERTURE LIST*
%ADD10C,0.100000*%
%ADD11O,1.700000X1.700000*%
%ADD12R,1.700000X1.700000*%
%ADD13C,0.800000*%
%ADD14C,6.400000*%
%ADD15O,2.250000X4.500000*%
%ADD16O,2.500000X5.000000*%
%ADD17C,2.250000*%
G04 APERTURE END LIST*
D10*
G36*
X63500000Y98500000D02*
G01*
X0Y98500000D01*
X0Y100000000D01*
X63500000Y100000000D01*
X63500000Y98500000D01*
G37*
X63500000Y98500000D02*
X0Y98500000D01*
X0Y100000000D01*
X63500000Y100000000D01*
X63500000Y98500000D01*
G36*
X63500000Y0D02*
G01*
X0Y0D01*
X0Y1500000D01*
X63500000Y1500000D01*
X63500000Y0D01*
G37*
X63500000Y0D02*
X0Y0D01*
X0Y1500000D01*
X63500000Y1500000D01*
X63500000Y0D01*
D11*
G04 #@! TO.C,TP1*
X20500000Y14460000D03*
D12*
X20500000Y17000000D03*
G04 #@! TD*
D13*
G04 #@! TO.C,H4*
X7697056Y7697056D03*
X6000000Y8400000D03*
X4302944Y7697056D03*
X3600000Y6000000D03*
X4302944Y4302944D03*
X6000000Y3600000D03*
X7697056Y4302944D03*
X8400000Y6000000D03*
D14*
X6000000Y6000000D03*
G04 #@! TD*
D13*
G04 #@! TO.C,H3*
X59197056Y7697056D03*
X57500000Y8400000D03*
X55802944Y7697056D03*
X55100000Y6000000D03*
X55802944Y4302944D03*
X57500000Y3600000D03*
X59197056Y4302944D03*
X59900000Y6000000D03*
D14*
X57500000Y6000000D03*
G04 #@! TD*
D13*
G04 #@! TO.C,H2*
X59197056Y95697056D03*
X57500000Y96400000D03*
X55802944Y95697056D03*
X55100000Y94000000D03*
X55802944Y92302944D03*
X57500000Y91600000D03*
X59197056Y92302944D03*
X59900000Y94000000D03*
D14*
X57500000Y94000000D03*
G04 #@! TD*
D13*
G04 #@! TO.C,H1*
X7697056Y95697056D03*
X6000000Y96400000D03*
X4302944Y95697056D03*
X3600000Y94000000D03*
X4302944Y92302944D03*
X6000000Y91600000D03*
X7697056Y92302944D03*
X8400000Y94000000D03*
D14*
X6000000Y94000000D03*
G04 #@! TD*
D15*
G04 #@! TO.C,J6*
X8000000Y15400000D03*
D16*
X14000000Y15400000D03*
G04 #@! TD*
D17*
G04 #@! TO.C,J5*
X58480000Y50000000D03*
X55940000Y47460000D03*
X61020000Y47460000D03*
X61020000Y52540000D03*
X55940000Y52540000D03*
G04 #@! TD*
G04 #@! TO.C,J4*
X58480000Y80000000D03*
X55940000Y77460000D03*
X61020000Y77460000D03*
X61020000Y82540000D03*
X55940000Y82540000D03*
G04 #@! TD*
G04 #@! TO.C,J3*
X58480000Y35000000D03*
X55940000Y32460000D03*
X61020000Y32460000D03*
X61020000Y37540000D03*
X55940000Y37540000D03*
G04 #@! TD*
G04 #@! TO.C,J2*
X58480000Y20000000D03*
X55940000Y17460000D03*
X61020000Y17460000D03*
X61020000Y22540000D03*
X55940000Y22540000D03*
G04 #@! TD*
G04 #@! TO.C,J1*
X58480000Y65000000D03*
X55940000Y62460000D03*
X61020000Y62460000D03*
X61020000Y67540000D03*
X55940000Y67540000D03*
G04 #@! TD*
M02*
