M48
; DRILL file {KiCad 5.1.8-5.1.8} date Wed Dec 23 15:53:14 2020
; FORMAT={-:-/ absolute / metric / decimal}
; #@! TF.CreationDate,2020-12-23T15:53:14+01:00
; #@! TF.GenerationSoftware,Kicad,Pcbnew,5.1.8-5.1.8
FMAT,2
METRIC
T1C0.400
T2C0.500
T3C1.000
T4C1.500
T5C1.700
T6C3.200
%
G90
G05
T1
X1.775Y98.225
X1.775Y91.025
X1.775Y83.825
X1.775Y76.625
X1.775Y69.425
X1.775Y62.225
X1.775Y55.025
X1.775Y47.825
X1.775Y40.625
X1.775Y33.425
X1.775Y26.225
X1.775Y19.025
X1.775Y4.625
X4.572Y33.147
X4.572Y31.647
X4.572Y30.147
X4.572Y28.647
X5.375Y87.425
X5.375Y80.225
X5.375Y73.025
X5.375Y65.825
X5.375Y58.625
X5.375Y51.425
X5.375Y44.225
X5.375Y15.425
X6.985Y38.481
X6.985Y37.211
X7.112Y33.147
X7.112Y31.647
X7.112Y30.147
X7.112Y28.647
X7.112Y24.511
X7.112Y23.114
X8.975Y98.225
X8.975Y91.025
X8.975Y83.825
X8.975Y76.625
X8.975Y69.425
X8.975Y62.225
X8.975Y55.025
X8.975Y47.825
X8.975Y19.025
X9.144Y39.243
X9.144Y36.449
X9.144Y25.146
X9.144Y22.479
X9.652Y33.147
X9.652Y31.647
X9.652Y30.147
X9.652Y28.647
X10.0Y48.2
X10.6Y50.4
X11.8Y15.425
X12.2Y50.4
X12.575Y94.625
X12.575Y87.425
X12.575Y80.225
X12.575Y73.025
X12.575Y65.825
X12.575Y58.625
X12.575Y51.425
X12.575Y40.625
X12.8Y48.2
X14.375Y46.025
X14.375Y20.825
X14.375Y10.025
X14.375Y2.825
X14.75Y34.25
X15.375Y34.875
X16.0Y35.5
X16.175Y98.225
X16.175Y91.025
X16.175Y83.825
X16.175Y76.625
X16.175Y69.425
X16.175Y62.225
X16.175Y55.025
X16.383Y47.244
X16.383Y45.085
X17.669Y49.569
X17.7Y50.4
X17.975Y38.825
X17.975Y17.225
X17.975Y6.425
X19.685Y33.147
X19.685Y31.75
X19.685Y29.972
X19.685Y28.448
X19.775Y94.625
X19.775Y87.425
X19.775Y80.225
X19.775Y73.025
X19.775Y65.825
X19.775Y58.625
X19.775Y11.825
X21.575Y26.225
X21.575Y2.825
X22.022Y68.313
X22.022Y66.285
X22.022Y64.257
X22.022Y62.228
X22.022Y60.2
X22.022Y58.172
X22.022Y56.144
X22.022Y54.116
X22.022Y52.088
X22.026Y70.341
X22.299Y72.346
X22.3Y41.9
X23.023Y74.236
X23.232Y41.931
X23.375Y98.225
X23.375Y91.025
X23.375Y83.825
X23.375Y37.025
X23.375Y20.825
X23.375Y8.225
X24.131Y41.931
X24.158Y75.911
X25.175Y15.425
X25.222Y68.814
X25.222Y66.73
X25.222Y64.646
X25.222Y62.562
X25.222Y60.479
X25.222Y58.395
X25.222Y56.311
X25.222Y54.227
X25.222Y52.143
X25.273Y70.895
X25.587Y77.349
X25.918Y72.864
X26.848Y55.39
X26.848Y52.96
X26.848Y34.814
X26.848Y32.759
X26.848Y30.704
X26.883Y28.649
X26.924Y46.736
X26.924Y45.085
X26.924Y38.989
X26.975Y94.625
X26.975Y87.425
X26.975Y4.625
X27.051Y48.641
X27.051Y40.132
X27.052Y57.806
X27.216Y74.483
X27.251Y78.5
X27.297Y26.641
X27.884Y60.081
X28.161Y24.782
X28.775Y82.025
X28.775Y71.225
X28.775Y19.025
X28.775Y11.825
X28.87Y75.732
X29.074Y61.792
X29.135Y79.239
X29.43Y23.171
X30.048Y54.783
X30.048Y52.656
X30.048Y50.53
X30.048Y34.814
X30.048Y32.677
X30.048Y30.541
X30.099Y45.212
X30.099Y40.005
X30.135Y56.904
X30.14Y28.41
X30.539Y63.282
X30.575Y98.225
X30.575Y91.025
X30.575Y37.025
X30.86Y76.31
X30.883Y21.718
X30.884Y58.88
X30.906Y26.429
X31.137Y79.531
X32.004Y45.212
X32.004Y42.545
X32.004Y40.132
X32.061Y64.711
X32.269Y60.486
X32.305Y24.822
X32.375Y85.625
X32.375Y55.025
X32.375Y31.625
X32.375Y15.425
X32.375Y8.225
X32.378Y20.31
X32.943Y76.337
X33.165Y79.537
X33.78Y61.981
X33.815Y23.311
X33.841Y65.797
X34.122Y19.231
X34.175Y94.625
X34.175Y73.025
X34.175Y49.625
X34.175Y2.825
X35.027Y76.337
X35.052Y44.958
X35.179Y42.672
X35.179Y40.386
X35.194Y79.537
X35.557Y22.096
X35.597Y63.061
X35.825Y66.436
X35.975Y89.225
X35.975Y82.025
X35.975Y58.625
X35.975Y28.025
X35.975Y11.825
X36.069Y18.585
X37.11Y76.337
X37.222Y79.537
X37.623Y21.606
X37.684Y63.4
X37.775Y98.225
X37.775Y69.425
X37.775Y53.225
X37.775Y33.425
X37.775Y6.425
X37.905Y66.6
X38.084Y48.082
X38.084Y44.882
X38.084Y40.462
X38.084Y37.262
X38.111Y18.4
X39.194Y76.337
X39.25Y79.537
X39.575Y92.825
X39.575Y85.625
X39.575Y24.425
X39.575Y15.425
X39.76Y21.6
X39.811Y63.4
X39.994Y66.6
X40.166Y18.4
X40.22Y48.082
X40.317Y44.882
X40.341Y37.262
X41.213Y40.455
X41.375Y60.425
X41.375Y29.825
X41.375Y10.025
X41.375Y2.825
X41.896Y21.6
X41.937Y63.4
X42.084Y66.6
X42.222Y18.4
X42.255Y48.606
X42.515Y45.21
X42.524Y36.837
X43.053Y76.708
X43.053Y73.787
X43.175Y96.425
X43.175Y89.225
X43.175Y82.025
X43.175Y71.225
X43.175Y55.025
X43.281Y40.014
X43.826Y50.048
X44.033Y21.6
X44.063Y63.4
X44.174Y66.6
X44.194Y35.331
X44.277Y18.4
X44.323Y76.708
X44.323Y73.914
X44.472Y46.262
X44.704Y75.819
X44.704Y74.803
X44.958Y78.486
X44.958Y77.47
X44.975Y42.425
X44.975Y26.225
X44.975Y13.625
X44.975Y6.425
X45.054Y38.96
X45.593Y76.327
X45.646Y51.147
X46.022Y34.026
X46.109Y47.778
X46.169Y21.6
X46.19Y63.4
X46.263Y66.6
X46.332Y18.4
X46.538Y37.515
X46.736Y76.327
X46.775Y92.825
X46.775Y85.625
X46.775Y58.625
X47.725Y51.593
X48.186Y33.428
X48.209Y48.4
X48.306Y21.6
X48.316Y63.4
X48.353Y66.6
X48.372Y36.628
X48.387Y18.4
X48.575Y98.225
X48.575Y73.025
X48.575Y46.025
X48.575Y29.825
X48.575Y10.025
X48.575Y2.825
X50.375Y89.225
X50.375Y55.025
X50.375Y40.625
X50.375Y24.425
X50.375Y15.425
X50.442Y66.6
X50.442Y63.4
X50.442Y51.6
X50.442Y48.4
X50.442Y36.6
X50.442Y33.4
X50.442Y21.6
X50.442Y18.4
X52.175Y94.625
X52.175Y83.825
X52.175Y76.625
X52.175Y69.425
X52.175Y60.425
X52.175Y6.425
X53.975Y44.225
X53.975Y28.025
X53.975Y11.825
X55.775Y98.225
X55.775Y73.025
X55.775Y56.825
X57.575Y85.625
X57.575Y40.625
X59.375Y26.225
X59.375Y13.625
X61.175Y89.225
X61.175Y74.825
X61.175Y58.625
X61.175Y44.225
X61.175Y4.625
T2
X55.1Y6.0
X55.803Y7.697
X55.803Y4.303
X57.5Y8.4
X57.5Y3.6
X59.197Y7.697
X59.197Y4.303
X59.9Y6.0
X55.1Y94.0
X55.803Y95.697
X55.803Y92.303
X57.5Y96.4
X57.5Y91.6
X59.197Y95.697
X59.197Y92.303
X59.9Y94.0
X3.6Y94.0
X4.303Y95.697
X4.303Y92.303
X6.0Y96.4
X6.0Y91.6
X7.697Y95.697
X7.697Y92.303
X8.4Y94.0
X3.6Y6.0
X4.303Y7.697
X4.303Y4.303
X6.0Y8.4
X6.0Y3.6
X7.697Y7.697
X7.697Y4.303
X8.4Y6.0
T3
X20.5Y17.0
X20.5Y14.46
T4
X58.48Y50.0
X58.48Y35.0
X58.48Y20.0
X58.48Y65.0
X58.48Y80.0
T5
X55.94Y52.54
X55.94Y47.46
X61.02Y52.54
X61.02Y47.46
X55.94Y37.54
X55.94Y32.46
X61.02Y37.54
X61.02Y32.46
X55.94Y22.54
X55.94Y17.46
X61.02Y22.54
X61.02Y17.46
X55.94Y67.54
X55.94Y62.46
X61.02Y67.54
X61.02Y62.46
X55.94Y82.54
X55.94Y77.46
X61.02Y82.54
X61.02Y77.46
T6
X57.5Y6.0
X57.5Y94.0
X6.0Y94.0
X6.0Y6.0
T3
G00X8.0Y14.4
M15
G01X8.0Y16.4
M16
G05
G00X14.0Y14.15
M15
G01X14.0Y16.65
M16
G05
T0
M30
